<svg width="1024" height="280" viewBox="0 0 1024 280" fill="none" xmlns="http://www.w3.org/2000/svg">
<g clip-path="url(#clip0_103_225)">
<path d="M1024 0H0V280H1024V0Z" fill="url(#paint0_linear_103_225)"/>
<path d="M156 216C197.973 216 232 181.974 232 140C232 98.0264 197.973 64 156 64C114.027 64 80 98.0264 80 140C80 181.974 114.027 216 156 216Z" fill="white"/>
<path d="M155.999 213.642C196.461 213.642 229.262 180.672 229.262 140C229.262 99.3289 196.461 66.3584 155.999 66.3584C115.538 66.3584 82.7363 99.3289 82.7363 140C82.7363 180.672 115.538 213.642 155.999 213.642Z" fill="url(#paint1_linear_103_225)"/>
<path d="M173.786 124.16C171.411 119.04 173.614 112.955 178.708 110.568C183.801 108.18 189.856 110.395 192.229 115.515L211.036 156.055C213.411 161.174 211.208 167.26 206.114 169.647C201.023 172.034 194.968 169.819 192.593 164.7L173.786 124.16Z" fill="white" stroke="white" stroke-width="2.01382"/>
<path d="M189.669 127.485C193.973 123.85 194.535 117.394 190.926 113.064C187.317 108.734 180.904 108.17 176.6 111.804L149.597 134.616C145.293 138.251 144.732 144.707 148.34 149.037C151.952 153.367 158.363 153.931 162.666 150.297L189.669 127.485Z" fill="white" stroke="url(#paint2_linear_103_225)" stroke-width="2.01382"/>
<path d="M122.477 127.406C118.238 123.697 117.788 117.232 121.472 112.966C125.158 108.7 131.578 108.248 135.816 111.958L162.421 135.24C166.659 138.95 167.109 145.415 163.426 149.681C159.742 153.947 153.32 154.398 149.081 150.689L122.477 127.406Z" fill="white" stroke="url(#paint3_linear_103_225)" stroke-width="2.01382"/>
<path d="M138.21 123.946C140.586 118.827 138.383 112.741 133.289 110.354C128.195 107.967 122.141 110.181 119.768 115.301L100.961 155.841C98.5855 160.96 100.789 167.046 105.882 169.433C110.976 171.82 117.028 169.606 119.404 164.486L138.21 123.946Z" fill="white" stroke="url(#paint4_linear_103_225)" stroke-width="2.01382"/>
<path d="M312 124.359V94.1355H318.077L326.645 119.685L335.214 94.1355H341.291V124.359H337.925V97.7168H337.313L328.525 123.267H324.766L315.978 97.7168H315.366V124.359H312ZM363.58 109.116V120.297C363.668 121.374 364.513 122.015 366.116 122.218L365.985 124.795C363.683 124.795 361.948 124.213 360.782 123.048C358.159 124.213 355.536 124.795 352.913 124.795C350.902 124.795 349.372 124.227 348.323 123.092C347.274 121.956 346.749 120.326 346.749 118.2C346.749 116.075 347.288 114.517 348.367 113.527C349.445 112.508 351.135 111.882 353.438 111.649L360.302 110.994V109.116C360.302 107.631 359.981 106.568 359.34 105.928C358.699 105.287 357.824 104.967 356.717 104.967C354.385 104.967 351.966 105.113 349.459 105.404L348.104 105.535L347.973 103.045C351.179 102.405 354.021 102.084 356.498 102.084C358.976 102.084 360.768 102.652 361.875 103.788C363.012 104.923 363.58 106.699 363.58 109.116ZM350.115 118.026C350.115 120.704 351.223 122.044 353.438 122.044C355.42 122.044 357.372 121.709 359.296 121.039L360.302 120.69V113.484L353.831 114.095C352.52 114.211 351.572 114.59 350.99 115.231C350.407 115.871 350.115 116.803 350.115 118.026ZM370.05 124.359V102.521H373.285V105.491C375.82 103.744 378.487 102.594 381.285 102.041V105.36C380.061 105.593 378.779 105.957 377.438 106.452C376.127 106.947 375.121 107.384 374.421 107.762L373.329 108.33V124.359H370.05ZM400.596 109.116V120.297C400.683 121.374 401.528 122.015 403.131 122.218L403 124.795C400.698 124.795 398.964 124.213 397.798 123.048C395.175 124.213 392.551 124.795 389.928 124.795C387.917 124.795 386.387 124.227 385.338 123.092C384.289 121.956 383.764 120.326 383.764 118.2C383.764 116.075 384.303 114.517 385.382 113.527C386.46 112.508 388.151 111.882 390.453 111.649L397.317 110.994V109.116C397.317 107.631 396.996 106.568 396.355 105.928C395.714 105.287 394.839 104.967 393.732 104.967C391.4 104.967 388.981 105.113 386.475 105.404L385.119 105.535L384.988 103.045C388.194 102.405 391.036 102.084 393.513 102.084C395.991 102.084 397.783 102.652 398.89 103.788C400.027 104.923 400.596 106.699 400.596 109.116ZM387.13 118.026C387.13 120.704 388.238 122.044 390.453 122.044C392.435 122.044 394.388 121.709 396.311 121.039L397.317 120.69V113.484L390.847 114.095C389.535 114.211 388.588 114.59 388.005 115.231C387.422 115.871 387.13 116.803 387.13 118.026ZM418.388 105.36H411.437V115.798C411.437 118.302 411.611 119.947 411.961 120.733C412.34 121.52 413.215 121.913 414.584 121.913L418.475 121.651L418.694 124.359C416.741 124.679 415.255 124.839 414.235 124.839C411.961 124.839 410.387 124.286 409.513 123.179C408.639 122.073 408.202 119.962 408.202 116.846V105.36H405.098V102.521H408.202V95.839H411.437V102.521H418.388V105.36ZM425.671 124.359H422.392V93H425.671V103.744C428.002 102.637 430.247 102.084 432.403 102.084C435.318 102.084 437.271 102.871 438.262 104.443C439.281 106.015 439.791 108.81 439.791 112.828V124.359H436.513V112.916C436.513 109.888 436.207 107.82 435.595 106.714C435.012 105.578 433.759 105.011 431.835 105.011C429.999 105.011 428.221 105.345 426.501 106.015L425.671 106.321V124.359ZM444.911 113.396C444.911 109.407 445.625 106.525 447.053 104.749C448.482 102.972 450.886 102.084 454.267 102.084C457.677 102.084 460.082 102.972 461.48 104.749C462.909 106.525 463.624 109.407 463.624 113.396C463.624 117.385 462.951 120.282 461.611 122.088C460.271 123.893 457.823 124.795 454.267 124.795C450.711 124.795 448.263 123.893 446.922 122.088C445.582 120.282 444.911 117.385 444.911 113.396ZM448.278 113.352C448.278 116.526 448.657 118.754 449.414 120.035C450.201 121.316 451.819 121.956 454.267 121.956C456.744 121.956 458.362 121.33 459.119 120.078C459.878 118.797 460.257 116.555 460.257 113.352C460.257 110.15 459.833 107.951 458.988 106.758C458.143 105.535 456.57 104.923 454.267 104.923C451.994 104.923 450.42 105.535 449.546 106.758C448.7 107.951 448.278 110.15 448.278 113.352ZM472.249 124.359H468.969V102.521H472.205V104.05C474.566 102.74 476.824 102.084 478.982 102.084C481.896 102.084 483.85 102.871 484.84 104.443C485.859 106.015 486.37 108.81 486.37 112.828V124.359H483.135V112.916C483.135 109.888 482.828 107.82 482.217 106.714C481.633 105.578 480.366 105.011 478.412 105.011C477.48 105.011 476.489 105.156 475.44 105.447C474.421 105.709 473.633 105.971 473.081 106.234L472.249 106.627V124.359Z" fill="white"/>
<path d="M322.919 181.454C321.23 181.798 319.713 181.97 318.369 181.97C317.025 181.97 315.935 181.789 315.099 181.429C314.279 181.052 313.639 180.479 313.18 179.709C312.738 178.923 312.426 178.031 312.246 177.032C312.082 176.016 312 174.755 312 173.248C312 171.741 312.082 170.48 312.246 169.465C312.426 168.433 312.738 167.524 313.18 166.738C313.639 165.952 314.279 165.379 315.099 165.018C315.918 164.658 316.984 164.478 318.295 164.478C319.607 164.478 321.148 164.658 322.919 165.018L322.845 166.615C321.189 166.32 319.713 166.173 318.418 166.173C316.615 166.173 315.418 166.713 314.828 167.794C314.254 168.859 313.967 170.685 313.967 173.273C313.967 174.567 314.017 175.607 314.115 176.393C314.23 177.179 314.443 177.891 314.754 178.53C315.066 179.153 315.517 179.603 316.107 179.881C316.713 180.143 317.59 180.275 318.738 180.275C319.902 180.275 321.271 180.127 322.845 179.832L322.919 181.454ZM325.6 181.724V169.44H327.42V171.111C328.846 170.128 330.346 169.481 331.92 169.17V171.037C331.232 171.168 330.51 171.373 329.756 171.651C329.018 171.93 328.453 172.176 328.059 172.388L327.444 172.708V181.724H325.6ZM333.32 175.557C333.32 173.314 333.722 171.692 334.525 170.693C335.328 169.694 336.681 169.195 338.583 169.195C340.501 169.195 341.853 169.694 342.64 170.693C343.444 171.692 343.845 173.314 343.845 175.557C343.845 177.801 343.468 179.431 342.714 180.446C341.96 181.462 340.583 181.97 338.583 181.97C336.583 181.97 335.205 181.462 334.451 180.446C333.697 179.431 333.32 177.801 333.32 175.557ZM335.214 175.533C335.214 177.318 335.427 178.571 335.853 179.292C336.296 180.012 337.206 180.373 338.583 180.373C339.976 180.373 340.886 180.021 341.312 179.316C341.739 178.596 341.952 177.335 341.952 175.533C341.952 173.731 341.714 172.495 341.239 171.823C340.763 171.136 339.878 170.791 338.583 170.791C337.304 170.791 336.419 171.136 335.927 171.823C335.451 172.495 335.214 173.731 335.214 175.533ZM350.714 170.841C348.927 170.841 348.034 171.463 348.034 172.708C348.034 173.281 348.239 173.69 348.648 173.936C349.058 174.165 349.993 174.411 351.452 174.673C352.911 174.919 353.944 175.271 354.55 175.729C355.157 176.188 355.46 177.048 355.46 178.309C355.46 179.57 355.051 180.495 354.231 181.085C353.427 181.675 352.247 181.97 350.69 181.97C349.673 181.97 348.476 181.855 347.099 181.626L346.362 181.503L346.46 179.906C348.329 180.184 349.739 180.324 350.69 180.324C351.64 180.324 352.362 180.176 352.854 179.881C353.362 179.57 353.616 179.063 353.616 178.358C353.616 177.638 353.403 177.154 352.977 176.909C352.55 176.647 351.616 176.401 350.173 176.172C348.73 175.942 347.706 175.607 347.099 175.165C346.493 174.722 346.189 173.903 346.189 172.708C346.189 171.512 346.607 170.628 347.443 170.055C348.296 169.481 349.354 169.195 350.616 169.195C351.616 169.195 352.87 169.309 354.378 169.539L355.067 169.661L355.018 171.234C353.198 170.972 351.763 170.841 350.714 170.841ZM362.145 170.841C360.358 170.841 359.465 171.463 359.465 172.708C359.465 173.281 359.67 173.69 360.08 173.936C360.49 174.165 361.424 174.411 362.883 174.673C364.342 174.919 365.375 175.271 365.982 175.729C366.588 176.188 366.891 177.048 366.891 178.309C366.891 179.57 366.482 180.495 365.662 181.085C364.858 181.675 363.678 181.97 362.121 181.97C361.104 181.97 359.907 181.855 358.53 181.626L357.793 181.503L357.891 179.906C359.76 180.184 361.17 180.324 362.121 180.324C363.072 180.324 363.793 180.176 364.285 179.881C364.793 179.57 365.047 179.063 365.047 178.358C365.047 177.638 364.834 177.154 364.408 176.909C363.981 176.647 363.047 176.401 361.604 176.172C360.162 175.942 359.137 175.607 358.53 175.165C357.924 174.722 357.621 173.903 357.621 172.708C357.621 171.512 358.039 170.628 358.875 170.055C359.727 169.481 360.785 169.195 362.047 169.195C363.047 169.195 364.301 169.309 365.809 169.539L366.498 169.661L366.449 171.234C364.629 170.972 363.195 170.841 362.145 170.841ZM369.377 175.828V174.108H376.828V175.828H369.377ZM380.258 187.178V169.44H382.078V170.325C383.324 169.571 384.554 169.195 385.767 169.195C387.324 169.195 388.455 169.694 389.16 170.693C389.865 171.676 390.218 173.306 390.218 175.582C390.218 177.859 389.8 179.496 388.964 180.495C388.144 181.478 386.775 181.97 384.857 181.97C383.857 181.97 382.939 181.879 382.103 181.699V187.178H380.258ZM385.496 170.841C385.004 170.841 384.472 170.923 383.898 171.086C383.34 171.25 382.898 171.414 382.57 171.578L382.103 171.823V180.103C383.267 180.283 384.152 180.373 384.759 180.373C386.086 180.373 387.013 179.996 387.537 179.243C388.078 178.489 388.349 177.261 388.349 175.557C388.349 173.854 388.103 172.642 387.611 171.922C387.136 171.201 386.431 170.841 385.496 170.841ZM393.374 181.724V164.085H395.218V181.724H393.374ZM407.599 173.15V179.439C407.648 180.045 408.123 180.406 409.025 180.52L408.951 181.97C407.656 181.97 406.681 181.642 406.025 180.987C404.549 181.642 403.074 181.97 401.598 181.97C400.467 181.97 399.606 181.65 399.016 181.011C398.426 180.373 398.131 179.455 398.131 178.26C398.131 177.064 398.434 176.188 399.041 175.631C399.647 175.058 400.598 174.706 401.893 174.575L405.754 174.206V173.15C405.754 172.315 405.574 171.717 405.213 171.357C404.853 170.996 404.361 170.816 403.738 170.816C402.426 170.816 401.066 170.898 399.656 171.062L398.893 171.136L398.82 169.735C400.623 169.375 402.221 169.195 403.615 169.195C405.008 169.195 406.017 169.514 406.64 170.153C407.279 170.791 407.599 171.791 407.599 173.15ZM400.025 178.162C400.025 179.668 400.647 180.422 401.893 180.422C403.008 180.422 404.107 180.234 405.189 179.857L405.754 179.66V175.607L402.115 175.951C401.377 176.016 400.844 176.229 400.516 176.589C400.189 176.95 400.025 177.474 400.025 178.162ZM417.607 171.037H413.697V176.909C413.697 178.317 413.795 179.243 413.992 179.685C414.205 180.127 414.697 180.348 415.467 180.348L417.656 180.201L417.779 181.724C416.681 181.904 415.845 181.994 415.271 181.994C413.992 181.994 413.107 181.683 412.615 181.061C412.123 180.438 411.877 179.251 411.877 177.498V171.037H410.131V169.44H411.877V165.681H413.697V169.44H417.607V171.037ZM422.22 171.037V181.724H420.375V171.037H418.826V169.44H420.375V168.335C420.375 166.599 420.621 165.42 421.113 164.797C421.605 164.158 422.466 163.839 423.695 163.839L426.179 164.011L426.155 165.534C425.236 165.502 424.474 165.485 423.867 165.485C423.277 165.485 422.851 165.681 422.589 166.075C422.343 166.468 422.22 167.229 422.22 168.359V169.44H425.786V171.037H422.22ZM427.243 175.557C427.243 173.314 427.645 171.692 428.448 170.693C429.251 169.694 430.604 169.195 432.506 169.195C434.424 169.195 435.776 169.694 436.563 170.693C437.366 171.692 437.768 173.314 437.768 175.557C437.768 177.801 437.391 179.431 436.637 180.446C435.883 181.462 434.506 181.97 432.506 181.97C430.505 181.97 429.128 181.462 428.374 180.446C427.62 179.431 427.243 177.801 427.243 175.557ZM429.136 175.533C429.136 177.318 429.35 178.571 429.776 179.292C430.218 180.012 431.128 180.373 432.506 180.373C433.899 180.373 434.809 180.021 435.235 179.316C435.661 178.596 435.875 177.335 435.875 175.533C435.875 173.731 435.637 172.495 435.161 171.823C434.686 171.136 433.801 170.791 432.506 170.791C431.227 170.791 430.341 171.136 429.85 171.823C429.374 172.495 429.136 173.731 429.136 175.533ZM440.776 181.724V169.44H442.596V171.111C444.022 170.128 445.522 169.481 447.096 169.17V171.037C446.408 171.168 445.686 171.373 444.932 171.651C444.194 171.93 443.629 172.176 443.235 172.388L442.62 172.708V181.724H440.776ZM451.122 181.724H449.278V169.44H451.097V170.3C452.327 169.563 453.523 169.195 454.688 169.195C456.212 169.195 457.278 169.612 457.884 170.448C458.425 170.12 459.122 169.833 459.975 169.588C460.844 169.326 461.607 169.195 462.261 169.195C463.9 169.195 464.999 169.637 465.557 170.521C466.131 171.389 466.419 172.962 466.419 175.238V181.724H464.573V175.287C464.573 173.584 464.409 172.421 464.081 171.799C463.753 171.16 463.057 170.841 461.991 170.841C461.45 170.841 460.893 170.923 460.319 171.086C459.745 171.234 459.302 171.381 458.991 171.528L458.524 171.75C458.737 172.29 458.844 173.486 458.844 175.337V181.724H456.999V175.386C456.999 173.617 456.835 172.421 456.507 171.799C456.196 171.16 455.499 170.841 454.417 170.841C453.892 170.841 453.351 170.923 452.794 171.086C452.253 171.234 451.835 171.381 451.54 171.528L451.122 171.75V181.724ZM481.606 171.037H477.696V176.909C477.696 178.317 477.794 179.243 477.991 179.685C478.204 180.127 478.696 180.348 479.467 180.348L481.655 180.201L481.779 181.724C480.68 181.904 479.844 181.994 479.27 181.994C477.991 181.994 477.106 181.683 476.614 181.061C476.124 180.438 475.878 179.251 475.878 177.498V171.037H474.131V169.44H475.878V165.681H477.696V169.44H481.606V171.037ZM492.22 180.201L492.932 180.127L492.981 181.576C491.114 181.839 489.514 181.97 488.186 181.97C486.417 181.97 485.162 181.462 484.424 180.446C483.686 179.415 483.318 177.818 483.318 175.656C483.318 171.348 485.031 169.195 488.458 169.195C490.114 169.195 491.351 169.661 492.171 170.595C492.991 171.512 493.401 172.962 493.401 174.943L493.302 176.344H485.188C485.188 177.703 485.434 178.71 485.926 179.366C486.417 180.021 487.27 180.348 488.481 180.348C489.711 180.348 490.957 180.299 492.22 180.201ZM491.557 174.87C491.557 173.363 491.311 172.298 490.819 171.676C490.344 171.054 489.557 170.742 488.458 170.742C487.376 170.742 486.556 171.07 485.998 171.725C485.457 172.38 485.178 173.429 485.162 174.87H491.557ZM500.136 170.841C498.348 170.841 497.456 171.463 497.456 172.708C497.456 173.281 497.66 173.69 498.07 173.936C498.48 174.165 499.414 174.411 500.874 174.673C502.333 174.919 503.366 175.271 503.973 175.729C504.58 176.188 504.882 177.048 504.882 178.309C504.882 179.57 504.472 180.495 503.652 181.085C502.848 181.675 501.668 181.97 500.112 181.97C499.096 181.97 497.899 181.855 496.521 181.626L495.783 181.503L495.882 179.906C497.751 180.184 499.161 180.324 500.112 180.324C501.061 180.324 501.783 180.176 502.275 179.881C502.783 179.57 503.038 179.063 503.038 178.358C503.038 177.638 502.825 177.154 502.399 176.909C501.972 176.647 501.038 176.401 499.595 176.172C498.152 175.942 497.128 175.607 496.521 175.165C495.914 174.722 495.61 173.903 495.61 172.708C495.61 171.512 496.029 170.628 496.865 170.055C497.718 169.481 498.775 169.195 500.037 169.195C501.038 169.195 502.291 169.309 503.8 169.539L504.488 169.661L504.439 171.234C502.619 170.972 501.185 170.841 500.136 170.841ZM514.074 171.037H510.164V176.909C510.164 178.317 510.263 179.243 510.46 179.685C510.673 180.127 511.165 180.348 511.935 180.348L514.123 180.201L514.247 181.724C513.149 181.904 512.313 181.994 511.739 181.994C510.46 181.994 509.574 181.683 509.082 181.061C508.592 180.438 508.347 179.251 508.347 177.498V171.037H506.599V169.44H508.347V165.681H510.164V169.44H514.074V171.037ZM521.73 181.724V169.44H523.55V171.111C524.977 170.128 526.476 169.481 528.05 169.17V171.037C527.361 171.168 526.64 171.373 525.888 171.651C525.15 171.93 524.583 172.176 524.189 172.388L523.576 172.708V181.724H521.73ZM537.905 169.44H539.749V181.724H537.905V180.864C536.675 181.601 535.462 181.97 534.265 181.97C532.592 181.97 531.477 181.535 530.92 180.667C530.379 179.799 530.109 178.194 530.109 175.852V169.44H531.953V175.828C531.953 177.613 532.11 178.809 532.421 179.415C532.733 180.021 533.438 180.324 534.537 180.324C535.075 180.324 535.626 180.25 536.184 180.103C536.741 179.939 537.167 179.783 537.463 179.636L537.905 179.415V169.44ZM545.142 181.724H543.296V169.44H545.116V170.3C546.444 169.563 547.714 169.195 548.927 169.195C550.567 169.195 551.666 169.637 552.223 170.521C552.797 171.406 553.083 172.978 553.083 175.238V181.724H551.263V175.287C551.263 173.584 551.092 172.421 550.747 171.799C550.419 171.16 549.707 170.841 548.609 170.841C548.084 170.841 547.526 170.923 546.936 171.086C546.362 171.234 545.919 171.381 545.608 171.528L545.142 171.75V181.724ZM558.349 181.724H556.506V169.44H558.323V170.3C559.652 169.563 560.924 169.195 562.137 169.195C563.775 169.195 564.873 169.637 565.431 170.521C566.005 171.406 566.293 172.978 566.293 175.238V181.724H564.473V175.287C564.473 173.584 564.299 172.421 563.955 171.799C563.627 171.16 562.915 170.841 561.816 170.841C561.291 170.841 560.734 170.923 560.144 171.086C559.57 171.234 559.127 171.381 558.815 171.528L558.349 171.75V181.724ZM578.074 180.201L578.786 180.127L578.835 181.576C576.968 181.839 575.368 181.97 574.04 181.97C572.271 181.97 571.016 181.462 570.278 180.446C569.54 179.415 569.172 177.818 569.172 175.656C569.172 171.348 570.884 169.195 574.312 169.195C575.968 169.195 577.205 169.661 578.025 170.595C578.844 171.512 579.254 172.962 579.254 174.943L579.156 176.344H571.041C571.041 177.703 571.287 178.71 571.779 179.366C572.271 180.021 573.124 180.348 574.335 180.348C575.565 180.348 576.811 180.299 578.074 180.201ZM577.411 174.87C577.411 173.363 577.165 172.298 576.673 171.676C576.197 171.054 575.41 170.742 574.312 170.742C573.229 170.742 572.409 171.07 571.852 171.725C571.311 172.38 571.032 173.429 571.016 174.87H577.411ZM582.129 181.724V169.44H583.949V171.111C585.376 170.128 586.875 169.481 588.449 169.17V171.037C587.76 171.168 587.039 171.373 586.285 171.651C585.547 171.93 584.982 172.176 584.589 172.388L583.972 172.708V181.724H582.129Z" fill="white"/>
</g>
<defs>
<linearGradient id="paint0_linear_103_225" x1="512" y1="0" x2="512" y2="280" gradientUnits="userSpaceOnUse">
<stop stop-color="#572CAC"/>
<stop offset="1" stop-color="#4C42B5"/>
</linearGradient>
<linearGradient id="paint1_linear_103_225" x1="155.999" y1="66.3584" x2="155.999" y2="213.642" gradientUnits="userSpaceOnUse">
<stop stop-color="#611AA5"/>
<stop offset="1" stop-color="#4C42B5"/>
</linearGradient>
<linearGradient id="paint2_linear_103_225" x1="191.029" y1="112.976" x2="148.001" y2="148.84" gradientUnits="userSpaceOnUse">
<stop stop-color="#5B25AA"/>
<stop offset="1" stop-color="#5630AE"/>
</linearGradient>
<linearGradient id="paint3_linear_103_225" x1="121.372" y1="112.877" x2="162.151" y2="148.089" gradientUnits="userSpaceOnUse">
<stop stop-color="#5C25AA"/>
<stop offset="1" stop-color="#5530AE"/>
</linearGradient>
<linearGradient id="paint4_linear_103_225" x1="133.347" y1="110.23" x2="105.59" y2="169.447" gradientUnits="userSpaceOnUse">
<stop stop-color="#5C24A9"/>
<stop offset="1" stop-color="#5336B0"/>
</linearGradient>
<clipPath id="clip0_103_225">
<rect width="1024" height="280" fill="white"/>
</clipPath>
</defs>
</svg>
