<svg xmlns="http://www.w3.org/2000/svg" width="2500" height="2500" viewBox="0 0 192.756 192.756"><g fill-rule="evenodd" clip-rule="evenodd"><path fill="#fff" d="M0 0h192.756v192.756H0V0z"/><path d="M31.28 130.758c41.937-30.075 83.873-34.084 125.812 0-39.098-50.417-81.37-44.485-125.812 0z" fill="#33348e"/><path d="M96.641 11.768c2.998 48.038-5.731 75.617-57.31 101.545 58.812-18.755 68.243-47.484 57.31-101.545z" fill="#fff22d"/><path d="M44.39 171.271H29.392v-34.407h4.139v32.881H44.39v1.526zm31.614 0h-15.58v-34.407h15.58v1.527H64.953v14.301h10.082v1.477H64.953v15.576h11.052v1.526h-.001zm17.749-23.193h-5.869v23.192h-4.252v-23.192h-6.011v-1.577h16.132v1.577zm13.925 23.93c-3.605 0-6.619-1.224-9.041-3.682-2.421-2.457-3.629-5.586-3.629-9.395 0-3.892 1.192-7.054 3.582-9.478 2.391-2.424 5.42-3.641 9.088-3.641 3.605 0 6.635 1.208 9.08 3.615 2.453 2.407 3.676 5.511 3.676 9.311 0 3.9-1.207 7.088-3.629 9.562-2.42 2.475-5.459 3.708-9.127 3.708zm8.504-13.806c0-2.886-.725-5.427-2.168-7.624-1.609-2.458-3.717-3.683-6.336-3.683-2.777 0-4.93 1.325-6.477 3.983-1.262 2.224-1.893 4.916-1.893 8.053 0 3.02.693 5.638 2.082 7.868 1.602 2.558 3.756 3.833 6.469 3.833 2.746 0 4.883-1.409 6.43-4.227 1.262-2.323 1.893-5.057 1.893-8.203zm14.603-16.867c0 .788-.262 1.417-.791 1.896-.52.479-1.15.713-1.893.713-.773 0-1.412-.244-1.918-.738-.512-.487-.764-1.133-.764-1.912 0-.756.268-1.368.812-1.846.537-.479 1.16-.713 1.869-.713s1.334.243 1.869.738c.547.486.816 1.115.816 1.862zm-.562 29.936h-4.25v-24.77h4.25v24.77zm15.992 0h-5.871c-2.404 0-3.604-1.426-3.604-4.277v-33.568h4.252v33.568c0 1.409.6 2.272 1.807 2.601.361.1 1.506.15 3.416.15v1.526zm17.148 0h-11.051c-2.312 0-3.463-1.259-3.463-3.782v-17.204c0-2.524 1.184-3.783 3.557-3.783h10.957v1.577h-7.77c-1.664 0-2.492.755-2.492 2.256v7.223h8.779v1.476h-8.779v8.254c0 1.636.844 2.458 2.539 2.458h7.723v1.525zM51.516 143.086c1.916 0 3.478-1.562 3.478-3.479s-1.562-3.478-3.478-3.478c-1.917 0-3.479 1.562-3.479 3.478s1.562 3.479 3.479 3.479z" fill="#33348e"/></g></svg>