<?xml version="1.0" encoding="UTF-8"?>
<!DOCTYPE svg PUBLIC "-//W3C//DTD SVG 1.1//EN" "http://www.w3.org/Graphics/SVG/1.1/DTD/svg11.dtd">
<!-- Creator: CorelDRAW X8 -->
<svg xmlns="http://www.w3.org/2000/svg" xml:space="preserve" width="3484px" height="720px" version="1.1" style="shape-rendering:geometricPrecision; text-rendering:geometricPrecision; image-rendering:optimizeQuality; fill-rule:evenodd; clip-rule:evenodd"
    viewBox="0 0 3484 720">
 <defs>
  <style type="text/css">
   <![CDATA[
    .fil0 {fill:#00669E}
    .fil1 {fill:#1090CF}
    .fil2 {fill:#5B5B5B;fill-rule:nonzero}
   ]]>
  </style>
 </defs>
 <g id="Слой_x0020_1">
  <metadata id="CorelCorpID_0Corel-Layer"/>
  <path class="fil0" d="M527 1l22 0c97,0 176,79 176,175l0 368c0,97 -79,176 -176,176l-112 0c58,-77 119,-185 77,-283 -15,-36 -84,-110 -120,-144 -171,-163 -35,-225 133,-292z"/>
  <path class="fil1" d="M181 1l301 0c-120,19 -412,115 -224,292 69,65 109,128 122,186 21,99 -50,172 -176,241l-23 0c-96,0 -175,-79 -175,-176l0 -368c0,-96 79,-175 175,-175z"/>
  <path class="fil2" d="M1172 464c0,19 -3,36 -11,51 -7,14 -16,26 -29,36 -12,9 -26,17 -43,22 -16,5 -34,7 -52,7 -13,0 -24,-1 -35,-3 -11,-2 -21,-5 -29,-8 -8,-3 -15,-6 -21,-9 -5,-3 -9,-6 -12,-9 -2,-2 -4,-6 -5,-10 -1,-5 -2,-11 -2,-20 0,-6 1,-11 1,-15 0,-4 1,-7 2,-9 1,-3 2,-5 3,-6 2,-1 3,-1 5,-1 3,0 7,1 11,5 5,3 11,6 19,10 7,4 16,7 27,10 10,3 22,5 36,5 9,0 17,-1 25,-3 7,-2 13,-5 18,-9 5,-4 9,-9 11,-15 3,-6 4,-12 4,-19 0,-9 -2,-16 -6,-22 -5,-6 -11,-11 -18,-15 -7,-5 -16,-9 -25,-13 -9,-4 -19,-9 -28,-13 -10,-5 -20,-10 -29,-16 -9,-5 -18,-12 -25,-20 -7,-8 -13,-18 -17,-29 -5,-10 -7,-24 -7,-39 0,-17 3,-33 10,-46 6,-13 15,-24 26,-33 11,-9 24,-15 39,-19 15,-5 30,-7 47,-7 9,0 17,1 26,2 9,1 17,3 24,5 8,3 15,5 20,8 6,3 10,5 12,7 2,2 3,4 4,5 0,1 1,3 1,5 1,2 1,5 1,8 1,4 1,8 1,13 0,5 0,10 -1,13 0,4 0,7 -1,10 -1,2 -2,4 -3,5 -1,1 -3,2 -5,2 -2,0 -5,-2 -10,-4 -4,-3 -10,-6 -16,-9 -7,-3 -15,-6 -23,-8 -9,-3 -18,-4 -29,-4 -8,0 -15,1 -21,3 -6,2 -11,5 -15,8 -4,3 -7,8 -9,13 -2,4 -3,10 -3,15 0,8 2,15 7,21 4,6 10,11 17,16 8,4 16,9 26,13 9,4 19,8 29,13 9,4 19,9 28,15 10,6 18,13 26,21 7,8 13,17 17,28 5,11 7,23 7,38zm291 200c0,2 0,3 -2,5 -1,1 -3,3 -5,4 -3,1 -6,1 -11,2 -4,1 -10,1 -17,1 -7,0 -13,0 -17,-1 -5,-1 -8,-1 -11,-2 -3,-1 -5,-3 -6,-4 -1,-2 -1,-3 -1,-5l0 -120c-7,6 -14,12 -20,16 -7,5 -13,9 -19,12 -7,3 -13,5 -20,6 -7,1 -14,2 -21,2 -19,0 -35,-4 -48,-11 -13,-8 -23,-18 -31,-30 -9,-13 -15,-27 -18,-44 -4,-17 -6,-35 -6,-53 0,-23 2,-43 7,-61 5,-18 12,-33 22,-46 9,-12 21,-22 35,-29 13,-6 29,-10 47,-10 7,0 14,1 20,2 7,2 13,4 20,8 6,3 13,8 19,13 7,6 15,13 23,21l0 -28c0,-2 1,-3 2,-5 1,-1 2,-2 5,-3 2,-1 5,-2 9,-2 4,-1 9,-1 15,-1 5,0 10,0 14,1 4,0 7,1 9,2 2,1 4,2 5,3 1,2 1,3 1,5l0 352zm-70 -268c-10,-13 -20,-23 -30,-30 -9,-6 -19,-10 -29,-10 -9,0 -17,3 -24,7 -6,5 -12,11 -16,19 -4,7 -7,16 -9,26 -2,9 -3,19 -3,29 0,10 1,21 3,31 2,10 4,19 8,26 4,8 9,14 16,19 6,5 14,7 24,7 5,0 9,-1 14,-2 5,-2 9,-4 14,-7 5,-3 10,-7 15,-13 5,-5 11,-11 17,-19l0 -83zm380 168c0,2 0,4 -1,5 -1,1 -3,3 -5,4 -2,0 -5,1 -9,2 -4,0 -9,0 -15,0 -6,0 -11,0 -15,0 -4,-1 -7,-2 -9,-2 -2,-1 -4,-3 -5,-4 -1,-1 -1,-3 -1,-5l0 -29c-14,15 -28,26 -43,34 -14,7 -29,11 -45,11 -17,0 -32,-3 -43,-8 -12,-6 -22,-14 -29,-24 -7,-9 -12,-21 -15,-34 -4,-12 -5,-29 -5,-48l0 -154c0,-2 0,-3 1,-5 2,-1 3,-2 6,-3 3,-1 7,-2 11,-2 5,-1 11,-1 17,-1 7,0 13,0 18,1 4,0 8,1 10,2 3,1 5,2 6,3 1,2 2,3 2,5l0 142c0,14 1,24 2,31 2,7 5,13 8,17 4,5 8,9 14,12 5,3 11,4 18,4 9,0 18,-3 28,-10 9,-6 18,-16 29,-28l0 -168c0,-2 0,-3 1,-5 1,-1 3,-2 6,-3 3,-1 6,-2 11,-2 4,-1 10,-1 17,-1 7,0 13,0 17,1 5,0 8,1 11,2 3,1 5,2 6,3 1,2 1,3 1,5l0 252zm286 1c0,3 -1,5 -3,6 -2,2 -5,3 -9,3 -4,1 -10,1 -18,1 -8,0 -14,0 -18,-1 -4,0 -7,-1 -8,-3 -2,-1 -3,-3 -3,-6l0 -20c-10,11 -22,20 -35,26 -13,6 -28,9 -44,9 -14,0 -26,-2 -37,-5 -11,-4 -21,-9 -29,-16 -8,-7 -15,-15 -19,-25 -5,-10 -7,-22 -7,-36 0,-15 3,-27 9,-38 6,-11 14,-20 25,-27 12,-7 26,-12 43,-15 17,-4 36,-6 59,-6l24 0 0 -15c0,-8 -1,-15 -2,-21 -2,-5 -4,-10 -8,-14 -4,-4 -9,-7 -15,-9 -6,-2 -13,-3 -22,-3 -12,0 -23,1 -32,4 -9,3 -18,6 -25,9 -7,3 -13,6 -18,8 -4,3 -8,4 -11,4 -2,0 -4,0 -6,-1 -1,-2 -3,-4 -4,-6 -1,-3 -2,-6 -2,-9 -1,-4 -1,-8 -1,-12 0,-6 1,-10 1,-14 1,-3 3,-6 6,-9 2,-3 7,-6 14,-9 6,-3 14,-6 23,-9 9,-3 18,-5 29,-7 10,-2 21,-3 32,-3 20,0 37,2 51,6 14,4 25,10 34,18 9,8 16,18 20,31 4,12 6,27 6,45l0 169zm-70 -108l-27 0c-11,0 -21,1 -29,2 -8,2 -15,5 -20,8 -5,3 -9,8 -11,12 -2,5 -3,11 -3,17 0,10 3,19 10,25 6,6 15,9 27,9 10,0 19,-3 28,-8 8,-5 17,-12 25,-22l0 -43zm303 -121c0,6 0,12 -1,16 0,5 -1,8 -1,10 -1,3 -2,5 -3,6 -2,0 -3,1 -5,1 -1,0 -3,0 -5,-1 -2,-1 -4,-1 -7,-2 -2,-1 -4,-2 -7,-2 -3,-1 -6,-1 -10,-1 -4,0 -7,0 -11,2 -4,2 -8,4 -13,8 -4,3 -8,8 -13,13 -5,6 -10,13 -15,21l0 157c0,2 0,4 -2,5 -1,1 -3,3 -5,4 -3,0 -7,1 -11,2 -5,0 -10,0 -17,0 -7,0 -13,0 -18,0 -4,-1 -8,-2 -10,-2 -3,-1 -5,-3 -6,-4 -1,-1 -2,-3 -2,-5l0 -252c0,-2 1,-3 2,-5 0,-1 2,-2 5,-3 2,-1 5,-2 9,-2 4,-1 9,-1 14,-1 7,0 11,0 15,1 4,0 7,1 10,2 2,1 3,2 4,3 1,2 2,3 2,5l0 32c6,-10 13,-18 18,-24 6,-6 12,-11 17,-14 5,-4 11,-6 16,-8 5,-1 10,-2 16,-2 2,0 5,0 8,1 2,0 5,0 8,1 3,1 6,2 8,2 3,1 4,2 5,3 1,1 2,2 2,3 1,1 1,3 2,5 0,2 0,5 1,9 0,4 0,9 0,16zm269 95c0,9 -2,15 -6,19 -3,4 -9,6 -16,6l-153 0c0,11 1,21 4,29 3,9 7,17 12,23 6,6 13,10 22,13 8,4 19,5 31,5 12,0 23,-1 33,-2 9,-2 17,-4 24,-6 7,-3 13,-5 17,-6 5,-2 8,-3 11,-3 2,0 3,0 4,1 1,1 2,2 3,3 1,2 1,4 2,8 0,3 0,7 0,11 0,4 0,8 0,11 0,3 -1,5 -1,7 0,2 -1,4 -2,5 0,2 -1,3 -3,5 -1,1 -4,3 -10,5 -5,2 -12,5 -21,7 -8,2 -18,4 -29,5 -10,2 -22,3 -35,3 -22,0 -42,-3 -58,-8 -17,-6 -31,-15 -43,-26 -11,-12 -19,-26 -25,-44 -5,-17 -8,-38 -8,-61 0,-22 3,-43 9,-61 5,-17 14,-33 25,-45 11,-13 25,-22 41,-29 16,-6 33,-10 53,-10 21,0 40,3 54,10 15,6 28,14 37,25 10,11 17,24 22,40 4,15 6,31 6,49l0 11zm-69 -20c1,-20 -3,-36 -12,-47 -8,-12 -21,-17 -39,-17 -9,0 -17,1 -24,5 -7,3 -12,8 -17,13 -4,6 -7,13 -10,21 -2,8 -3,16 -4,25l106 0zm409 -156c0,2 0,4 0,6 -1,2 -1,4 -2,5 0,2 -1,3 -2,4 -1,0 -2,1 -4,1 -2,0 -6,-2 -11,-6 -5,-4 -12,-8 -21,-12 -8,-5 -19,-9 -31,-12 -12,-4 -27,-6 -44,-6 -22,0 -41,4 -58,12 -17,8 -31,19 -43,33 -11,14 -20,30 -26,49 -7,19 -10,40 -10,62 0,25 4,47 11,66 7,19 16,35 29,49 12,13 27,23 44,30 17,7 35,10 55,10 13,0 27,-1 40,-4 13,-4 26,-8 38,-15l0 -118 -94 0c-3,0 -5,-1 -7,-4 -1,-3 -2,-6 -2,-11 0,-3 0,-5 1,-7 0,-2 1,-4 1,-5 1,-1 2,-2 3,-3 1,0 3,-1 4,-1l112 0c2,0 4,1 6,1 2,1 3,2 5,3 2,1 3,3 4,5 1,3 1,6 1,9l0 135c0,5 0,9 -2,12 -1,3 -5,6 -10,9 -5,3 -12,6 -20,10 -8,3 -17,6 -26,8 -9,3 -18,5 -27,6 -10,1 -19,2 -27,2 -28,0 -53,-5 -74,-14 -22,-9 -41,-21 -55,-37 -15,-17 -27,-36 -35,-59 -8,-22 -12,-47 -12,-74 0,-28 5,-54 13,-78 9,-23 21,-43 36,-59 16,-17 34,-30 56,-39 22,-9 46,-14 72,-14 13,0 25,2 37,4 12,3 22,5 32,9 9,3 17,7 24,11 6,4 11,7 13,10 3,2 4,5 5,7 1,2 1,5 1,10zm309 58c0,17 -3,33 -8,47 -6,14 -14,26 -25,36 -11,11 -24,18 -39,24 -16,6 -34,9 -56,9l-47 0 0 139c0,1 -1,2 -1,3 -1,1 -2,2 -3,2 -1,1 -3,1 -5,2 -3,0 -5,0 -9,0 -3,0 -6,0 -8,0 -2,-1 -4,-1 -5,-2 -2,0 -3,-1 -3,-2 -1,-1 -1,-2 -1,-3l0 -342c0,-7 2,-11 5,-14 4,-2 7,-4 11,-4l74 0c7,0 14,1 21,1 7,1 16,3 25,5 9,2 19,6 28,12 10,6 18,13 25,22 7,8 12,18 16,29 3,11 5,23 5,36zm-36 3c0,-16 -3,-29 -10,-40 -6,-11 -13,-19 -22,-25 -9,-5 -18,-8 -28,-10 -10,-1 -19,-2 -28,-2l-51 0 0 159 49 0c16,0 30,-2 40,-6 11,-4 20,-10 27,-17 8,-7 13,-16 17,-26 4,-10 6,-21 6,-33zm304 159c0,16 -3,30 -8,43 -6,13 -14,24 -25,33 -11,9 -23,16 -38,20 -14,5 -30,7 -47,7 -12,0 -23,-1 -33,-3 -10,-2 -19,-5 -28,-8 -8,-3 -15,-6 -20,-9 -6,-3 -9,-6 -11,-8 -3,-2 -4,-4 -5,-7 -1,-3 -1,-7 -1,-11 0,-3 0,-6 0,-8 1,-2 1,-4 2,-5 0,-2 1,-3 2,-3 1,-1 2,-1 3,-1 3,0 7,2 12,5 4,3 11,7 18,11 8,4 17,7 27,11 11,3 23,4 38,4 11,0 22,-1 31,-4 10,-3 18,-8 25,-14 7,-5 12,-13 16,-21 4,-9 6,-18 6,-29 0,-11 -3,-21 -7,-29 -5,-8 -12,-15 -20,-21 -8,-7 -17,-12 -27,-17 -10,-5 -20,-10 -31,-15 -11,-5 -21,-10 -31,-16 -10,-6 -19,-13 -27,-21 -8,-7 -15,-17 -20,-27 -5,-11 -7,-23 -7,-38 0,-14 2,-26 8,-38 5,-11 12,-20 21,-28 9,-8 20,-14 33,-18 13,-4 27,-6 43,-6 7,0 15,1 23,2 8,2 15,4 22,6 7,2 14,5 19,8 6,3 9,5 11,7 2,2 3,3 4,4 0,1 1,2 1,3 0,2 1,3 1,5 0,2 0,4 0,7 0,2 0,4 0,6 -1,2 -1,4 -2,5 0,2 -1,3 -2,3 -1,1 -2,2 -3,2 -2,0 -5,-2 -9,-5 -4,-2 -10,-5 -16,-9 -6,-3 -14,-6 -23,-9 -9,-3 -19,-4 -30,-4 -11,0 -21,2 -29,5 -8,3 -15,7 -21,12 -5,5 -9,11 -12,18 -2,7 -4,14 -4,22 0,11 3,21 8,29 4,8 11,15 19,21 8,6 17,12 27,17 11,5 21,10 32,15 10,5 21,10 31,16 10,6 19,12 27,20 9,8 15,17 20,28 5,10 7,22 7,37z"/>
 </g>
</svg>
