<svg width="1501" height="480" viewBox="0 0 1501 480" fill="none" xmlns="http://www.w3.org/2000/svg">
<path d="M533.815 224.529L540.836 202.192L517.609 202.917C515.647 202.917 501.383 202.515 487.546 192.543C488.577 192.644 489.608 192.784 490.661 192.784C504.904 192.784 518.681 184.26 524.205 172.076L534.2 150.062C521.676 150.222 510.225 148.654 510.225 148.654C510.123 148.634 501.1 147.487 490.661 136.893C483.174 129.293 473.909 125.272 463.873 125.272C459.484 125.272 455.558 126.056 452.18 127.122C452.706 125.333 453.211 123.523 453.496 121.653C456.691 101.046 443.339 85.3239 443.339 85.3438L425.879 63.8518L415.055 89.104C415.014 89.1847 412.283 95.0948 407.387 97.9904C405.91 90.5717 402.289 82.2274 394.54 74.2468C379.932 59.2083 362.149 56.9765 352.842 56.9765C348.532 56.9765 345.458 57.4393 344.708 57.5596L323.628 61.6808C324.841 56.9963 327.431 48.8544 332.165 41.5163L343.799 23.5017L314.523 26.819L305.196 7.1371L287.15 16.3857L270.459 0L253.807 16.3857L235.7 7.1371L226.393 26.819L197.139 23.5017L208.791 41.5163C213.526 48.8544 216.116 56.9765 217.31 61.661L197.198 57.7209L196.511 57.5992C195.499 57.4393 192.445 56.9765 188.115 56.9765C178.808 56.9765 161.025 59.2282 146.457 74.2468C138.688 82.2076 135.067 90.5717 133.57 97.9904C128.715 95.1358 126.003 89.305 126.003 89.305L115.159 63.9126L97.4166 85.5448C95.2508 88.3398 84.5491 103.116 87.4619 121.693C87.766 123.543 88.2512 125.353 88.7775 127.142C85.4191 126.076 81.4936 125.292 77.104 125.292C67.0687 125.292 57.8029 129.313 50.2969 136.913C39.8966 147.468 30.9138 148.654 30.9957 148.654C30.9957 148.654 21.5065 150.343 6.81846 150.081L16.752 172.096C22.276 184.299 36.0729 192.804 50.2969 192.804C51.3692 192.804 52.4004 192.663 53.4529 192.563C39.6547 202.535 25.3911 202.937 23.6709 202.957L0 202.192L7.16221 224.509C10.7638 236.008 22.8009 255.067 45.8663 257.118C43.3568 267.573 37.7931 279.274 25.5735 284.321L7.95155 291.538L17.5611 308.165C22.9834 317.132 35.7093 327.626 53.8363 327.626C57.7619 327.606 61.5446 327.224 65.1872 326.46C66.118 330.561 67.2908 334.662 68.6672 338.724C74.0683 354.687 69.4155 365.825 69.3547 365.945L60.6548 384.06L80.0776 389.147C80.3208 389.227 86.1873 390.815 93.532 390.815C96.8705 390.815 100.046 390.473 103.041 389.769C105.306 389.247 107.472 388.544 109.555 387.699C112.064 392.182 115.119 396.264 118.68 399.922C131.123 412.609 148.745 419.042 171.08 419.042H171.161L187.104 418.841L154.166 432.432L179.173 444.435C188.257 448.838 199.04 454.044 210.006 458.025L206.89 466.51L215.509 470.41C216.277 470.751 232.847 478.13 260.404 479.698C260.404 479.698 267.06 480 270.721 480C274.383 480 280.958 479.677 280.958 479.677C308.333 478.07 324.78 470.771 325.55 470.41L334.188 466.489L331.032 457.984C342.322 453.883 353.489 448.475 362.189 444.254L386.73 432.412L353.893 418.8L369.897 419.001C392.254 419.001 409.896 412.569 422.317 399.862C425.858 396.223 428.914 392.141 431.443 387.659C433.527 388.503 435.711 389.206 437.977 389.73C440.951 390.433 444.128 390.774 447.466 390.774C454.688 390.774 460.617 389.186 460.778 389.147L480.282 384.019L471.784 366.247C471.582 365.785 466.929 354.667 472.331 338.683C473.706 334.603 474.859 330.502 475.79 326.42C479.453 327.184 483.276 327.586 487.222 327.586C510.305 327.586 521.372 311.441 523.517 307.944L533.026 291.497L515.404 284.301C503.164 279.254 497.621 267.533 495.132 257.098C517.872 255.169 530.092 236.109 533.815 224.529ZM218.846 69.3613L218.605 69.4208L218.807 69.1604L218.846 69.3613Z" fill="white"/>
<path d="M270.479 68.3772C251.825 68.397 237.846 74.4685 234.79 81.6056L270.479 95.5981L306.168 81.6056C303.133 74.4685 289.153 68.397 270.479 68.3772Z" fill="white"/>
<path d="M270.841 438.805H270.8H270.496H270.152H270.132C258.822 438.886 243.264 436.573 235.758 434.402L226.734 458.668C232.683 460.779 252.834 464.8 270.496 464.8C288.118 464.8 308.289 460.76 314.217 458.668L305.213 434.402C297.688 436.594 282.149 438.886 270.841 438.805Z" fill="white"/>
<path d="M339.127 414.68C332.41 418.46 317.418 424.129 308.698 426.763L316.022 446.807C329.516 443.147 340.643 438.866 349.85 434.282L334.655 429.255L339.127 414.68Z" fill="white"/>
<path d="M201.852 414.68L206.343 429.255L191.129 434.282C200.314 438.866 211.502 443.147 224.936 446.807L232.26 426.763C223.58 424.129 208.568 418.44 201.852 414.68Z" fill="white"/>
<path d="M270.474 45.1753C284.535 45.1753 298.333 48.5125 308.934 54.383C309.906 51.1463 311.261 47.226 313.102 43.1246L309.097 43.6072L304.889 44.0489L303.108 40.2489L297.746 28.9906L287.974 34.0572L284.171 35.9876L281.136 33.0113L270.515 22.5569L259.913 33.0113L256.878 35.9876L253.075 34.0572L243.242 28.9906L237.942 40.2489L236.121 44.0489L231.912 43.6072L227.906 43.1246C229.748 47.2459 231.083 51.1463 232.074 54.383C242.696 48.5125 256.453 45.1753 270.474 45.1753Z" fill="white"/>
<path d="M485.159 175.293C486.981 175.917 488.841 176.199 490.683 176.199C498.633 176.199 506.322 171.091 508.972 165.242C508.972 165.242 494.385 164.357 478.705 148.535C473.709 143.407 468.428 141.879 463.896 141.879C456.855 141.879 451.574 145.578 451.574 145.578C470.512 155.591 474.375 171.674 485.159 175.293Z" fill="white"/>
<path d="M50.2796 176.199C52.1201 176.199 53.9817 175.917 55.7627 175.293C66.586 171.674 70.4705 155.591 89.4081 145.578C89.4081 145.578 84.1061 141.879 77.1065 141.879C72.5543 141.879 67.2735 143.407 62.2558 148.535C46.5973 164.357 32.0098 165.242 32.0098 165.242C34.6197 171.091 42.328 176.199 50.2796 176.199Z" fill="white"/>
<path d="M490.301 240.652C490.625 240.672 490.908 240.672 491.252 240.672C511.099 240.672 517.837 219.542 517.837 219.542H517.452C513.811 219.542 484.292 218.697 463.433 192.34C449.696 175.01 438.446 159.77 416.211 153.78L414.027 153.398L413.541 151.186C412.934 147.807 415.261 144.651 420.542 141.234C451.213 121.27 430.394 95.8168 430.394 95.8168C430.394 95.8168 421.634 116.184 402.03 116.184C401.564 116.184 401.058 116.164 400.573 116.164C398.348 116.042 396.203 115.961 394.037 115.5L390.416 114.797C390.416 114.797 396.001 99.6974 382.526 85.8251C372.369 75.3509 360.008 73.5818 352.866 73.5818C349.264 73.5818 346.978 74.0432 346.978 74.0432C353.756 82.8502 358.652 97.4457 350.823 106.452C344.066 114.192 327.556 114.575 327.556 126.114C327.556 131 332.149 136.71 340.403 141.836C365.228 157.377 389.87 177.985 400.107 205.609C412.914 240.069 398.489 262.928 377.894 276.036C377.894 276.036 384.347 281.946 393.715 282.69C395.616 282.872 397.478 282.952 399.218 282.952C418.984 282.952 429.201 273.743 429.201 273.743C429.201 273.743 427.521 286.471 417.223 298.292C407.735 309.208 395.272 315.622 376.274 315.903C376.274 315.903 375.667 324.669 384.084 332.248C389.465 337.033 401.908 338.601 401.908 338.601C401.908 338.601 378.621 343.286 376.052 377.464C374.656 395.981 369.901 402.413 369.901 402.413H370.327C424.365 402.413 422.969 356.354 422.969 356.354C422.969 356.354 426.732 369.984 441.805 373.544C443.625 374.026 445.568 374.207 447.429 374.207C452.286 374.207 456.493 373.081 456.493 373.081C456.493 373.081 448.603 356.535 456.432 333.395C462.927 314.194 461.875 299.961 461.875 299.961C461.875 299.961 469.158 310.898 487.206 310.998H487.387C502.42 310.998 508.974 299.679 508.974 299.679C472.942 284.822 476.503 236.852 476.503 236.852C476.503 236.852 481.177 240.309 490.301 240.652ZM479.456 290.752C464.808 283.575 455.542 264.516 453.297 257.64C450.868 295.436 432.296 321.673 410.587 346.924C399.318 360.013 395.394 372.74 395.394 372.74C395.394 372.74 397.558 358.324 407.309 346.583C427.562 322.397 446.803 292.3 448.239 257.499C449.23 233.213 442.938 213.51 433.126 197.286C438.608 214.194 437.84 234.902 419.206 254.223C419.206 254.223 456.291 210.051 404.437 164.776C383.679 147.547 360.979 136.911 349.286 129.372C391.529 143.063 412.146 127.984 412.146 127.984C398.65 139.605 381.191 139.404 370.366 137.735C373.3 139.163 376.356 140.65 379.653 142.4C415.261 161.62 447.268 193.244 452.73 237.053V236.71C461.025 279.714 479.456 290.752 479.456 290.752Z" fill="white"/>
<path d="M139.051 338.601C139.051 338.601 151.494 337.053 156.876 332.248C165.271 324.669 164.686 315.903 164.686 315.903C145.668 315.642 133.225 309.208 123.676 298.312C113.458 286.49 111.759 273.764 111.759 273.764C111.759 273.764 121.975 282.972 141.722 282.972C143.503 282.972 145.344 282.891 147.245 282.71C156.613 281.967 163.087 276.056 163.087 276.056C142.49 262.948 128.046 240.069 140.832 205.609C151.09 178.005 175.711 157.377 200.537 141.836C208.791 136.71 213.383 131.021 213.383 126.114C213.383 114.575 196.894 114.192 190.136 106.452C182.308 97.4457 187.224 82.8291 193.981 74.0432C193.981 74.0432 191.735 73.5818 188.113 73.5818C180.992 73.5818 168.63 75.3509 158.474 85.8251C144.959 99.6974 150.564 114.797 150.564 114.797L146.942 115.5C144.778 115.961 142.612 116.042 140.407 116.164C139.902 116.164 139.456 116.184 138.971 116.184C119.326 116.184 110.606 95.8366 110.606 95.8366C110.606 95.8366 89.7871 121.29 120.438 141.253C125.719 144.671 128.026 147.829 127.419 151.205L126.932 153.417L124.707 153.799C102.513 159.79 91.2442 175.03 77.5068 192.359C56.6878 218.677 27.2099 219.542 23.529 219.542H23.123C23.123 219.542 29.8609 240.672 49.708 240.672C50.032 240.672 50.3149 240.672 50.6587 240.652C59.783 240.329 64.4767 236.852 64.4767 236.852C64.4767 236.852 67.9977 284.802 32.0054 299.679C32.0054 299.679 38.5608 310.998 53.5926 310.998H53.775C71.8412 310.898 79.1053 299.961 79.1053 299.961C79.1053 299.961 78.0528 314.194 84.5275 333.395C92.3561 356.535 84.5064 373.081 84.5064 373.081C84.5064 373.081 88.7149 374.207 93.5501 374.207C95.4315 374.207 97.354 374.026 99.1548 373.544C114.206 369.984 117.99 356.354 117.99 356.354C117.99 356.354 116.614 402.413 170.654 402.413H171.037C171.037 402.413 166.304 395.981 164.928 377.464C162.339 343.286 139.051 338.601 139.051 338.601ZM130.373 346.924C108.664 321.673 90.1111 295.436 87.6624 257.64C85.4174 264.496 76.1912 283.575 61.5442 290.752C61.5442 290.752 79.9541 279.714 88.2296 236.71V237.053C93.7127 193.265 125.699 161.62 161.326 142.4C164.584 140.631 167.679 139.143 170.593 137.735C159.769 139.404 142.309 139.605 128.814 127.984C128.814 127.984 149.43 143.063 191.654 129.372C179.961 136.911 157.28 147.547 136.522 164.776C84.6478 210.051 121.753 254.223 121.753 254.223C103.1 234.882 102.352 214.194 107.834 197.286C98.0018 213.53 91.7294 233.213 92.7409 257.499C94.1569 292.3 113.397 322.397 133.609 346.583C143.382 358.304 145.587 372.74 145.587 372.74C145.587 372.74 141.62 360.013 130.373 346.924Z" fill="white"/>
<path d="M230.527 170.205C231.416 171.151 232.286 172.175 233.117 173.201C233.319 173.442 233.5 173.664 233.702 173.946C234.472 174.97 235.261 176.056 236.01 177.161C236.171 177.383 236.334 177.644 236.515 177.906C237.426 179.273 238.276 180.679 239.125 182.127C246.914 195.497 259.398 203.479 270.464 203.499C281.551 203.479 293.994 195.497 301.824 182.127C302.694 180.64 303.564 179.192 304.473 177.845C304.615 177.644 304.758 177.464 304.878 177.262C305.647 176.117 306.457 174.99 307.307 173.905C307.488 173.664 307.65 173.463 307.812 173.262C308.682 172.196 309.572 171.151 310.483 170.185C310.644 170.024 310.765 169.884 310.907 169.764C314.872 165.722 319.607 162.646 325.797 160.937L323.046 159.349H322.885L311.918 153.016L300.65 146.603L270.545 162.887L270.464 162.827L270.403 162.887L240.278 146.603L229.03 152.996L218.044 159.329H217.922L215.13 160.917C221.341 162.626 226.055 165.662 230.041 169.703C230.222 169.864 230.344 170.045 230.527 170.205ZM258.284 168.899H271.03H283.756V177.584C280.763 173.946 274.936 174.689 274.936 174.689V187.214C274.936 187.214 275.158 193.366 277.322 196.041H271.03H264.718C266.923 193.387 267.126 187.214 267.126 187.214V174.689C267.126 174.689 261.319 173.946 258.284 177.584V168.899Z" fill="white"/>
<path d="M267.873 152.05V101.206L235.3 90.2295L243.898 139.506L267.873 152.05ZM260.873 113.691V121.853L259.295 121.13C259.214 121.069 256.908 120.547 252.861 117.37C246.185 112.224 246.064 107.479 246.064 107.479L260.873 113.691Z" fill="white"/>
<path d="M297.089 139.506L305.647 90.2295L273.094 101.206V152.05L297.089 139.506ZM280.095 113.691L294.903 107.498C294.903 107.498 294.783 112.244 288.086 117.391C284.06 120.567 281.733 121.089 281.652 121.15L280.074 121.873V113.691H280.095Z" fill="white"/>
<path d="M221.805 269.927C224.982 271.074 228.826 271.316 230.788 271.316C230.87 271.074 230.97 270.772 231.072 270.41C231.253 269.827 231.416 269.265 231.538 268.621C232.084 265.806 232.286 262.609 232.326 260.558C230.99 259.735 229.109 258.267 228.058 256.076C226.844 253.543 225.124 252.377 222.594 252.377C219.317 252.377 215.797 254.327 214.299 255.251C213.107 262.268 218.305 268.641 221.805 269.927Z" fill="white"/>
<path d="M293.847 242.941C287.798 249.476 275.962 260.856 275.375 261.439L274.667 262.162L237.259 261.579C237.238 265.258 236.631 268.395 236.045 270.686C235.944 271.068 235.843 271.47 235.741 271.873L280.251 279.814C284.884 276.597 297.63 267.349 302.567 263.73C298.965 258.503 298.621 252.31 299.43 247.948C297.084 246.44 295.283 244.751 293.847 242.941Z" fill="white"/>
<path d="M298.928 198.235C290.308 206.739 282.034 209.875 274.65 210.599C273.314 210.74 271.959 210.821 270.583 210.821H270.481H270.4C269.025 210.821 267.649 210.74 266.313 210.599C265.019 210.478 263.664 210.277 262.309 209.976C261.822 211.885 261.215 215.886 262.955 219.666C264.513 223.104 267.69 225.657 272.323 227.347L273.88 227.949L273.901 229.618C273.901 230.12 274.265 240.937 286.141 243.932C288.083 241.942 289.843 240.153 291.139 238.666C288.71 232.996 289.984 227.205 293.505 224.37C293.344 224.973 291.806 239.168 303.258 244.436L305.139 245.32L304.572 247.31C304.389 247.913 300.566 261.645 314.425 266.751L316.873 267.676L315.78 270.049C315.538 270.571 310.096 283.037 322.903 290.113H350.68V268.199C340.808 266.992 336.619 259.112 335.547 253.523C330.955 252.739 327.394 250.768 324.965 247.552C319.138 239.932 324.156 232.955 324.217 232.573C324.197 232.634 324.217 240.072 328.83 244.656C331.116 246.868 333.828 248.577 337.934 248.959L339.957 249.14L340.14 251.191C340.179 251.632 341.293 261.685 350.7 263.273L350.68 218.52C350.68 211.584 352.724 204.608 355.172 198.174H298.928V198.235Z" fill="white"/>
<path d="M224.174 218.737L223.426 247.244L226.682 247.727L234.654 220.384L230.608 211.98L224.174 218.737Z" fill="white"/>
<path d="M312.053 349.48C312.297 349.48 312.58 349.52 312.843 349.581C317.8 350.987 319.054 368.76 327.753 370.349C328.603 370.529 329.392 370.57 330.08 370.57C332.589 370.57 334.086 369.504 335.704 367.615C335.704 367.615 331.335 360.779 328.057 356.174C323.707 350.144 320.329 342.845 312.236 342.845C312.053 342.845 311.811 342.845 311.609 342.865C308.938 343.007 307.299 344.293 307.299 344.293C304.021 342.243 300.967 341.539 298.194 341.539C293.117 341.539 289.172 343.85 287.208 343.85H287.128L269.04 342.081C266.208 341.821 263.983 338.986 263.174 337.879C262.972 337.578 262.87 337.397 262.87 337.397C262.87 336.914 262.87 336.412 262.83 335.97C262.223 321.273 250.772 314.981 246.705 314.88C246.705 314.88 247.19 312.085 246.078 311.019L242.092 315.824L229.002 309.291L238.329 320.128L230.418 328.953C229.427 329.958 229.548 331.325 229.953 331.889L233.372 334.885L237.702 332.271C237.924 332.109 238.309 332.07 238.794 332.07C239.988 332.07 241.789 332.371 243.407 332.371C245.167 332.371 246.705 331.989 246.887 330.34C246.341 335.789 241.263 345.258 244.601 352.697L247.07 358.306L231.086 356.014L223.6 368.579C221.294 372.761 220.93 377.285 223.156 379.738L225.947 383.215C225.947 383.215 229.872 379.074 230.762 376.36L229.487 374.973C228.415 373.807 228.476 372.761 229.124 371.494L233.818 363.754L252.693 368.177L253.685 366.489C254.959 364.377 256.801 363.734 258.824 363.734C259.653 363.734 260.503 363.835 261.393 363.975C264.894 364.659 270.66 365.584 276.426 365.584C282.758 365.584 289.03 364.458 292.367 360.738C299.206 370.811 313.065 372.42 311.973 377.526L308.331 394.777C310.739 394.676 313.065 394.515 315.27 394.213L318.73 376.259C319.115 374.309 319.479 371.675 319.479 371.675C318.143 370.328 314.907 367.474 313.086 364.016C310.637 359.351 311.973 356.919 309.687 350.847C309.767 350.887 310.455 349.48 312.053 349.48ZM241.445 324.269C240.514 324.249 239.847 323.465 239.886 322.539C239.968 321.655 240.717 320.951 241.626 321.032C242.557 321.072 243.225 321.876 243.185 322.76C243.103 323.646 242.335 324.33 241.445 324.269Z" fill="white"/>
<path d="M215.678 365.804C215.678 365.804 221.929 363.25 222.495 361.421L221.666 359.35C221.079 358.003 221.16 356.535 222.293 355.731L229.05 351.087L240.34 353.238C240.34 353.238 238.296 350.704 238.499 347.308L227.736 345.035L217.579 351.187C213.229 354.424 212.905 359.712 214.342 362.849L215.678 365.804Z" fill="white"/>
<path d="M295.467 395.037C297.49 394.956 299.715 394.915 302.164 394.915C302.164 394.915 307.971 378.048 308.293 377.505C305.037 376.078 298.279 372.519 295.669 370.89C297.389 373.445 301.577 376.38 300.748 378.631L295.467 395.037Z" fill="white"/>
<path d="M350.737 294.998H190.238V354.99C190.238 379.518 208.104 394.877 234.465 394.877C256.498 394.877 262.303 395.722 270.498 403.805C276.143 398.214 280.817 396.124 290.406 395.34L290.628 394.416L295.686 378.875C295.403 378.533 287.129 369.183 287.129 369.183C283.851 370.269 281.1 370.45 276.467 370.45C271.712 370.45 266.351 369.908 260.544 368.823C259.957 368.681 259.411 368.641 258.864 368.641C258.156 368.641 258.096 368.701 257.914 369.043L256.902 370.692L255.061 373.708L251.602 372.924L236.205 369.325L234.1 372.782L234.424 373.145L236.306 375.195L235.477 377.869C234.343 381.367 230.661 385.449 229.549 386.574L225.704 390.675L222.205 386.273L219.575 382.996C216.802 379.92 216.156 375.195 217.713 370.249C217.672 370.29 217.611 370.31 217.552 370.31L213.202 372.099L211.238 367.877L209.863 364.881C207.497 359.614 208.365 351.915 214.74 347.27L227.142 340.314L238.937 342.626C239.22 341.5 239.644 337.479 239.988 336.453C239.766 336.433 239.544 336.374 239.32 336.374L232.523 338.886L225.967 334.383C225.967 334.383 223.398 331.93 225.724 329.477L232.077 319.927L215.993 299.863L240.716 309.955L242.356 307.924L245.693 303.965L249.477 307.542C250.549 308.568 251.156 309.835 251.459 311.102C258.277 313.735 270.477 321.515 271.549 334.162L267.726 335.69V335.791C268.596 336.815 269.324 337.237 269.546 337.278L287.189 339.006C287.634 338.927 288.201 338.726 288.828 338.545C291.013 337.8 294.311 336.735 298.215 336.735C301.392 336.735 304.466 337.459 307.42 338.826C308.513 338.424 309.849 338.122 311.387 338.021L312.235 338.001C321.684 338.001 326.377 345.018 330.142 350.607C330.768 351.572 331.395 352.498 332.043 353.402C335.34 358.026 339.649 364.802 339.832 365.082L341.774 368.098L339.386 370.852C337.546 372.964 334.794 375.436 330.06 375.436C329.089 375.436 328.017 375.336 326.864 375.115C325.853 374.934 324.942 374.632 324.052 374.27C323.91 375.195 323.728 376.301 323.545 377.246L320.45 393.289C338.962 388.766 350.717 374.874 350.717 355.01L350.737 294.998Z" fill="#FFDD2D"/>
<path d="M190.242 290.173H315.052C308.82 283.78 308.902 275.678 310.5 270.41C308.679 269.545 307.182 268.499 305.847 267.374C300.971 270.952 286.08 281.729 282.196 284.422L281.367 284.986L232.385 276.18H231.394C230.221 276.18 228.501 276.14 226.619 275.918C226.093 278.11 224.192 279.618 222.006 279.618C221.763 279.618 221.48 279.598 221.217 279.537C219.942 279.316 218.831 278.672 218.082 277.608C217.313 276.562 217.01 275.315 217.232 274.029L217.414 272.983C212.356 269.445 207.703 261.543 209.766 253.22L209.968 252.336L210.677 251.833C210.778 251.753 211.627 251.19 212.882 250.466L209.321 249.923C207.986 249.682 207.096 248.455 207.299 247.149C207.521 245.822 208.775 244.877 210.09 245.138L218.567 246.465L219.336 216.79L231.961 203.521L239.831 219.988L231.515 248.536L239.002 249.702C240.316 249.903 241.227 251.13 241.025 252.476C240.822 253.662 239.811 254.487 238.617 254.487C238.495 254.487 238.354 254.487 238.232 254.467L232.142 253.482C232.224 253.662 232.344 253.763 232.426 253.965C233.073 255.291 234.51 256.256 235.359 256.658L272.708 257.241C274.285 255.713 278.211 251.893 282.237 247.852C273.052 244.395 269.713 236.513 269.146 231.286C264.008 229.114 260.467 225.858 258.505 221.615C256.117 216.369 256.967 211.121 257.594 208.568C252.617 206.758 247.378 203.462 242.036 198.194H185.792C188.2 204.628 190.242 211.604 190.242 218.54V290.173Z" fill="#FFDD2D"/>
<path d="M241.65 321.03C240.739 320.949 239.971 321.652 239.91 322.537C239.849 323.461 240.537 324.245 241.468 324.266C242.357 324.346 243.147 323.662 243.227 322.758C243.227 321.873 242.581 321.049 241.65 321.03Z" fill="black"/>
<path d="M350.52 429.816L341.274 426.298L343.823 416.809L346.635 406.455C346.635 406.455 330.247 415.28 307.163 421.915C300.608 423.784 295.651 424.629 295.651 424.629V431.666C295.651 431.666 283.31 433.797 270.827 433.797H270.684H270.503H270.26H270.118C257.636 433.797 245.294 431.666 245.294 431.666V424.629C245.294 424.629 240.316 423.784 233.782 421.915C210.697 415.28 194.33 406.455 194.33 406.455L197.101 416.809L199.711 426.298L190.445 429.816L180.168 433.636C191.963 439.286 208.289 447.528 223.242 451.59L219.721 461.16C219.721 461.16 238.678 469.745 270.26 469.824V469.845H270.362H270.503H270.625H270.705V469.824C302.328 469.745 321.264 461.16 321.264 461.16L317.723 451.59C332.674 447.528 349.043 439.286 360.777 433.636L350.52 429.816ZM191.133 434.28L206.347 429.253L201.856 414.677C208.552 418.457 223.586 424.127 232.284 426.761L224.941 446.805C211.506 443.125 200.318 438.843 191.133 434.28ZM270.503 464.798C252.84 464.798 232.669 460.758 226.742 458.666L235.764 434.4C243.25 436.571 258.829 438.884 270.138 438.803H270.159H270.503H270.806H270.847C282.157 438.884 297.694 436.571 305.221 434.4L314.223 458.666C308.296 460.778 288.145 464.798 270.503 464.798ZM316.024 446.805L308.701 426.761C317.42 424.127 332.411 418.457 339.129 414.677L334.658 429.253L349.852 434.28C340.646 438.843 329.518 443.125 316.024 446.805Z" fill="black"/>
<path d="M270.482 51.0462C289.298 51.0462 304.349 57.2379 312.665 63.8528C312.665 63.8528 315.133 49.0761 323.57 36.0276L308.416 37.7372L300.486 20.9891L285.251 28.79L270.482 14.2751L255.753 28.79L240.499 20.9891L232.588 37.7372L217.434 36.0276C225.87 49.0761 228.339 63.8528 228.339 63.8528C236.674 57.2379 251.686 51.0462 270.482 51.0462ZM231.899 43.6076L236.108 44.0492L237.929 40.2506L243.229 28.991L253.062 34.0377L256.866 35.9681L259.901 32.9919L270.502 22.5374L281.124 32.9919L284.159 35.9681L287.962 34.0377L297.735 28.991L303.096 40.2506L304.876 44.0492L309.084 43.6076L313.09 43.125C311.249 47.2462 309.893 51.1467 308.921 54.3833C298.32 48.5129 284.522 45.1757 270.462 45.1757C256.462 45.1757 242.683 48.5129 232.041 54.3833C231.051 51.1467 229.715 47.2264 227.873 43.125L231.899 43.6076Z" fill="black"/>
<path d="M491.223 247.125C515.563 247.125 523.696 222.517 524.039 221.471L526.75 212.806L517.626 213.087H517.586C514.369 213.087 487.521 212.384 468.483 188.339L466.682 186.107C454.24 170.385 442.445 155.447 421.363 148.631C421.97 148.089 422.84 147.405 424.034 146.641C435.222 139.323 441.737 130.437 443.375 120.124C445.763 104.603 435.809 92.2377 435.364 91.7352L428.586 83.4121L424.358 93.2835C424.075 93.9062 416.952 109.709 401.981 109.709H400.868C399.837 109.648 398.865 109.608 397.895 109.528C398.421 102.471 397.125 91.5541 387.172 81.3218C375.214 68.9965 360.526 67.1467 352.839 67.1467C348.731 67.1467 346.001 67.6505 345.716 67.6901L335.48 69.7012L341.792 77.9634C346.749 84.3363 351.24 96.0984 345.919 102.25C344.22 104.201 340.72 105.789 337.361 107.377C330.462 110.534 321.054 114.916 321.054 126.095C321.054 133.332 326.699 140.891 336.936 147.325C367.244 166.264 385.937 186.026 394.01 207.839C406.493 241.395 390.206 260.535 374.385 270.607L367.284 275.15L373.495 280.82C374.324 281.544 381.932 288.199 393.16 289.164C395.285 289.304 397.327 289.426 399.23 289.426C406.432 289.426 412.563 288.299 417.539 286.792C416.163 289.184 414.484 291.616 412.36 294.069C403.317 304.484 392.189 309.228 376.186 309.47L370.237 309.57L369.772 315.5C369.711 316.688 369.267 327.684 379.746 337.033C381.345 338.481 383.287 339.667 385.31 340.652C378.209 347.005 370.986 358.062 369.591 377.021C368.417 392.844 364.613 398.694 364.573 398.755L357.998 408.727L369.874 408.887C389.499 408.887 404.531 403.499 414.949 392.844C421.1 386.53 424.621 379.414 426.705 373.101C430.124 375.996 434.535 378.53 440.28 379.876C442.465 380.378 444.853 380.66 447.422 380.66C452.966 380.66 457.599 379.494 458.125 379.373L465.712 377.364L462.353 370.327C462.11 369.764 455.778 355.649 462.595 335.505C465.529 326.8 467.026 318.999 467.754 312.927C472.529 315.4 478.923 317.45 487.197 317.472C505.972 317.472 514.247 303.539 514.632 302.955L518.334 296.563L511.476 293.748C489.1 284.519 484.143 259.731 483.151 246.3C485.174 246.682 487.481 247.045 490.09 247.125H491.223ZM508.967 299.678C508.967 299.678 502.411 310.997 487.379 310.997H487.197C469.151 310.896 461.867 299.959 461.867 299.959C461.867 299.959 462.919 314.194 456.405 333.395C448.575 356.534 456.466 373.081 456.466 373.081C456.466 373.081 452.257 374.206 447.402 374.206C445.541 374.206 443.598 374.025 441.778 373.542C426.705 369.984 422.942 356.354 422.942 356.354C422.942 356.354 424.337 402.413 370.298 402.413H369.874C369.874 402.413 374.628 395.98 376.044 377.464C378.613 343.286 401.901 338.601 401.901 338.601C401.901 338.601 389.478 337.053 384.096 332.248C375.679 324.668 376.266 315.903 376.266 315.903C395.285 315.642 407.728 309.208 417.216 298.291C427.494 286.469 429.193 273.743 429.193 273.743C429.193 273.743 418.975 282.951 399.21 282.951C397.47 282.951 395.609 282.87 393.706 282.69C384.359 281.946 377.885 276.035 377.885 276.035C398.46 262.927 412.907 240.048 400.1 205.588C389.843 177.985 365.2 157.357 340.396 141.817C332.141 136.689 327.548 131 327.548 126.095C327.548 114.555 344.058 114.192 350.836 106.433C358.644 97.4245 353.748 82.8092 346.971 74.0234C346.971 74.0234 349.257 73.5606 352.859 73.5606C360 73.5606 372.362 75.3495 382.518 85.804C396.013 99.6762 390.408 114.775 390.408 114.775L394.03 115.479C396.196 115.942 398.34 116.022 400.565 116.123C401.051 116.123 401.536 116.143 402.021 116.143C421.626 116.143 430.387 95.7758 430.387 95.7758C430.387 95.7758 451.226 121.249 420.554 141.193C415.273 144.61 412.946 147.768 413.554 151.145L414.04 153.357L416.224 153.739C438.459 159.729 449.708 174.969 463.445 192.299C484.304 218.656 513.823 219.501 517.464 219.501H517.849C517.849 219.501 511.111 240.631 491.264 240.631C490.94 240.631 490.657 240.631 490.313 240.611C481.189 240.29 476.515 236.811 476.515 236.811C476.515 236.811 472.935 284.801 508.967 299.678Z" fill="black"/>
<path d="M448.48 151.289C457.563 156.093 462.844 162.527 467.477 168.238C472.029 173.807 476.359 179.173 483.115 181.405C485.523 182.23 488.072 182.612 490.662 182.612C500.818 182.612 511.016 176.439 514.879 167.895L518.764 159.33L509.357 158.768C508.911 158.747 496.813 157.661 483.339 143.97C477.795 138.362 471.098 135.405 463.875 135.405C455.055 135.405 448.519 139.788 447.791 140.231L439.132 146.283L448.48 151.289ZM463.896 141.88C468.427 141.88 473.708 143.407 478.706 148.534C494.384 164.357 508.972 165.241 508.972 165.241C506.322 171.072 498.634 176.198 490.682 176.198C488.842 176.198 487 175.917 485.159 175.294C474.376 171.675 470.511 155.591 451.554 145.579C451.554 145.579 456.856 141.88 463.896 141.88Z" fill="black"/>
<path d="M452.724 236.713V237.035C447.262 193.247 415.255 161.622 379.647 142.381C376.35 140.632 373.315 139.145 370.361 137.717C381.205 139.385 398.665 139.586 412.139 127.967C412.139 127.967 391.523 143.045 349.279 129.354C360.974 136.893 383.694 147.529 404.431 164.758C456.286 210.033 419.18 254.204 419.18 254.204C437.814 234.883 438.582 214.176 433.1 197.268C442.912 213.492 449.184 233.194 448.212 257.481C446.777 292.282 427.536 322.378 407.283 346.565C397.552 358.306 395.368 372.722 395.368 372.722C395.368 372.722 399.292 359.994 410.561 346.906C432.27 321.655 450.822 295.418 453.25 257.622C455.496 264.478 464.742 283.557 479.41 290.733C479.45 290.755 461.019 279.717 452.724 236.713Z" fill="black"/>
<path d="M176.38 398.734C176.36 398.674 172.597 392.824 171.384 377.001C169.968 358.042 162.764 346.985 155.643 340.632C157.707 339.667 159.608 338.481 161.207 337.013C171.667 327.664 171.221 316.666 171.16 315.48L170.756 309.549L164.767 309.448C148.805 309.188 137.656 304.443 128.613 294.049C126.509 291.596 124.81 289.164 123.434 286.771C128.41 288.279 134.5 289.404 141.723 289.404C143.666 289.404 145.669 289.284 147.793 289.144C159.021 288.179 166.629 281.544 167.478 280.8L173.689 275.13L166.588 270.587C150.706 260.494 134.48 241.355 146.943 207.819C155.015 186.006 173.689 166.244 204.037 147.305C214.275 140.871 219.878 133.312 219.878 126.075C219.878 114.896 210.491 110.493 203.592 107.357C200.233 105.769 196.734 104.181 195.035 102.23C189.693 96.0982 194.204 84.3163 199.141 77.9434L205.494 69.6798L195.216 67.6701C194.913 67.6291 192.222 67.1267 188.095 67.1267C180.406 67.1267 165.759 68.9764 153.781 81.3004C143.807 91.5539 142.493 102.471 142.998 109.508C142.027 109.588 141.056 109.628 140.044 109.689H138.952C123.94 109.689 116.839 93.8862 116.556 93.2635L112.326 83.3921L105.488 91.7152C105.104 92.2176 95.1099 104.602 97.5375 120.104C99.1558 130.417 105.67 139.303 116.858 146.621C118.072 147.385 118.922 148.069 119.529 148.611C98.4683 155.427 86.693 170.385 74.25 186.107L72.4492 188.339C53.4323 212.384 26.5234 213.087 23.3066 213.087L14.1426 212.805L16.9337 221.471C17.2576 222.517 25.3705 247.125 49.7289 247.125L50.903 247.084C53.472 247.003 55.7792 246.662 57.8431 246.26C56.8303 259.67 51.8735 284.459 29.4772 293.707L22.6389 296.522L26.3423 302.916C26.7059 303.499 35.0012 317.43 53.8158 317.43C62.0304 317.411 68.4232 315.36 73.2187 312.887C73.9472 318.959 75.4439 326.76 78.3778 335.465C85.1963 355.61 78.8432 369.723 78.5999 370.286L75.2416 377.322L82.8494 379.333C83.3545 379.454 88.0284 380.62 93.5511 380.62C96.1412 380.62 98.5291 380.338 100.674 379.836C106.44 378.489 110.89 375.955 114.268 373.061C116.332 379.373 119.873 386.49 126.004 392.804C136.442 403.459 151.454 408.847 171.08 408.847L182.976 408.686L176.38 398.734ZM170.634 402.413C116.595 402.413 117.972 356.354 117.972 356.354C117.972 356.354 114.209 369.984 99.136 373.542C97.3352 374.025 95.4127 374.206 93.5313 374.206C88.6762 374.206 84.4876 373.081 84.4876 373.081C84.4876 373.081 92.3374 356.534 84.5074 333.394C78.0341 314.194 79.0865 299.959 79.0865 299.959C79.0865 299.959 71.8225 310.896 53.7563 310.997H53.5738C38.542 310.997 31.9867 299.678 31.9867 299.678C67.9988 284.82 64.458 236.85 64.458 236.85C64.458 236.85 59.7854 240.309 50.6399 240.65C50.316 240.672 50.0132 240.672 49.6893 240.672C29.8209 240.672 23.1043 219.541 23.1043 219.541H23.5089C27.1713 219.541 56.6492 218.697 77.5078 192.339C91.2452 175.01 102.514 159.79 124.708 153.778L126.933 153.396L127.42 151.185C128.027 147.807 125.72 144.651 120.44 141.233C89.7684 121.268 110.607 95.8166 110.607 95.8166C110.607 95.8166 119.327 116.162 138.972 116.162C139.457 116.162 139.903 116.142 140.408 116.142C142.613 116.022 144.799 115.941 146.943 115.479L150.565 114.775C150.565 114.775 144.96 99.6761 158.475 85.8051C168.632 75.3295 180.993 73.5604 188.114 73.5604C191.736 73.5604 193.982 74.0232 193.982 74.0232C187.225 82.8289 182.329 97.4244 190.137 106.432C196.895 114.172 213.384 114.554 213.384 126.094C213.384 130.98 208.792 136.689 200.538 141.816C175.712 157.357 151.071 177.985 140.833 205.588C128.047 240.047 142.472 262.907 163.088 276.034C163.088 276.034 156.614 281.946 147.247 282.69C145.345 282.87 143.504 282.951 141.723 282.951C121.977 282.951 111.76 273.743 111.76 273.743C111.76 273.743 113.459 286.469 123.677 298.291C133.226 309.208 145.669 315.642 164.687 315.903C164.687 315.903 165.294 324.668 156.877 332.248C151.476 337.033 139.052 338.601 139.052 338.601C139.052 338.601 162.36 343.286 164.909 377.464C166.305 395.98 171.019 402.413 171.019 402.413H170.634Z" fill="black"/>
<path d="M50.2806 182.631C52.8906 182.631 55.4397 182.249 57.8461 181.425C64.6447 179.193 68.9537 173.825 73.5059 168.256C78.16 162.547 83.3998 156.114 92.4831 151.309L101.831 146.323L93.1508 140.271C92.4223 139.808 85.9079 135.445 77.1075 135.445C69.8647 135.445 63.148 138.381 57.624 144.01C44.1497 157.682 32.0716 158.787 31.626 158.807L22.2188 159.35L26.0835 167.935C29.9667 176.439 40.1435 182.631 50.2806 182.631ZM62.2569 148.553C67.2745 143.427 72.5553 141.899 77.1075 141.899C84.1071 141.899 89.4077 145.598 89.4077 145.598C70.4715 155.631 66.587 171.694 55.7624 175.313C53.9827 175.937 52.1211 176.219 50.2806 176.219C42.329 176.219 34.6406 171.111 32.0108 165.26C32.0108 165.241 46.5772 164.356 62.2569 148.553Z" fill="black"/>
<path d="M92.7452 257.501C91.7338 233.215 98.0062 213.512 107.838 197.288C102.355 214.196 103.104 234.904 121.758 254.225C121.758 254.225 84.6522 210.055 136.526 164.778C157.285 147.549 179.985 136.913 191.659 129.374C149.435 143.065 128.818 127.987 128.818 127.987C142.292 139.608 159.753 139.406 170.598 137.717C167.664 139.145 164.588 140.633 161.33 142.382C125.683 161.622 93.6959 193.247 88.2128 237.035V236.693C79.9387 279.696 61.5273 290.734 61.5273 290.734C76.1757 283.557 85.4019 264.498 87.6469 257.621C90.0956 295.418 108.647 321.656 130.356 346.906C141.625 359.995 145.591 372.721 145.591 372.721C145.591 372.721 143.386 358.306 133.614 346.565C113.402 322.42 94.1613 292.302 92.7452 257.501Z" fill="black"/>
<path d="M258.281 168.901V177.586C261.296 173.947 267.123 174.69 267.123 174.69V187.215C267.123 187.215 266.92 193.367 264.715 196.042H271.027H277.319C275.155 193.389 274.931 187.215 274.931 187.215V174.69C274.931 174.69 280.758 173.947 283.753 177.586V168.901H271.027H258.281Z" fill="black"/>
<path d="M252.858 117.392C256.884 120.568 259.211 121.092 259.292 121.151L260.87 121.876V113.693L246.061 107.501C246.061 107.521 246.202 112.245 252.858 117.392Z" fill="black"/>
<path d="M288.083 117.392C294.78 112.245 294.901 107.501 294.901 107.501L280.092 113.693V121.876L281.649 121.151C281.751 121.092 284.057 120.568 288.083 117.392Z" fill="black"/>
<path d="M314.763 84.0794C314.763 71.6748 293.742 60.5156 270.536 60.5156H270.516H270.456H270.395C247.189 60.5156 226.168 71.6748 226.168 84.0794L226.634 87.135L235.899 139.99L226.594 145.358L202.517 159.331H202.599C202.599 159.331 197.177 162.085 194.667 163.793C185.503 170.127 183.561 179.355 188.881 183.175C190.197 175.656 196.185 167.774 207.393 167.774C215.466 167.774 221.616 171.917 226.594 178.128C227.868 179.697 229.082 181.365 230.215 183.175C231.61 185.447 233.006 187.437 234.403 189.367H172.393C176.945 198.474 181.274 208.125 181.274 218.599V354.989C181.274 388.001 206.827 403.764 234.463 403.764C255.828 403.764 258.702 402.799 270.497 414.459C282.231 402.779 285.104 403.764 306.489 403.764C334.145 403.764 359.658 388.001 359.658 354.989V218.599C359.658 208.125 363.988 198.474 368.56 189.367H306.529C307.905 187.458 309.301 185.447 310.696 183.175C311.85 181.365 313.043 179.697 314.298 178.128C319.315 171.896 325.445 167.774 333.518 167.774C344.726 167.774 350.695 175.636 352.03 183.175C357.352 179.355 355.429 170.127 346.203 163.793C343.735 162.085 338.312 159.331 338.312 159.331H338.394L314.318 145.358L305.052 139.99L314.318 87.135L314.763 84.0794ZM235.292 90.2315L267.866 101.208V152.052L243.892 139.488L235.292 90.2315ZM242.03 198.233C247.372 203.521 252.612 206.799 257.588 208.607C256.94 211.16 256.092 216.428 258.499 221.676C260.461 225.897 264.022 229.154 269.14 231.326C269.707 236.553 273.025 244.414 282.231 247.892C278.205 251.934 274.279 255.732 272.681 257.28L235.353 256.697C234.504 256.276 233.067 255.33 232.421 253.984C232.339 253.803 232.218 253.703 232.158 253.502L238.246 254.487C238.389 254.507 238.509 254.507 238.631 254.507C239.805 254.507 240.836 253.703 241.039 252.496C241.241 251.15 240.331 249.923 239.016 249.722L231.53 248.555L239.845 220.027L231.975 203.56L219.351 216.83L218.581 246.505L210.105 245.177C208.789 244.917 207.535 245.882 207.313 247.188C207.11 248.495 208 249.722 209.335 249.962L212.896 250.506C211.622 251.229 210.793 251.792 210.691 251.873L209.962 252.375L209.76 253.26C207.697 261.583 212.37 269.484 217.409 273.022L217.226 274.068C217.024 275.355 217.307 276.601 218.076 277.647C218.804 278.713 219.937 279.356 221.191 279.578C221.455 279.617 221.737 279.637 221.981 279.637C224.165 279.637 226.068 278.13 226.614 275.938C228.495 276.16 230.215 276.199 231.388 276.199H232.38L281.361 284.985L282.19 284.442C286.094 281.729 300.965 270.952 305.841 267.394C307.176 268.54 308.673 269.585 310.494 270.449C308.916 275.717 308.815 283.819 315.067 290.212H190.237V218.62C190.237 211.684 188.194 204.707 185.786 198.273H242.03V198.233ZM302.563 263.734C297.607 267.353 284.861 276.601 280.248 279.818L235.738 271.877C235.84 271.475 235.94 271.093 236.042 270.691C236.628 268.399 237.215 265.262 237.256 261.583L274.664 262.187L275.372 261.463C275.939 260.899 287.795 249.521 293.844 242.967C295.28 244.756 297.08 246.465 299.427 247.972C298.618 252.314 298.962 258.507 302.563 263.734ZM228.05 256.075C229.102 258.266 231.003 259.733 232.319 260.558C232.278 262.609 232.076 265.806 231.53 268.619C231.408 269.244 231.247 269.827 231.064 270.41C230.964 270.771 230.862 271.072 230.781 271.314C228.819 271.314 224.954 271.072 221.798 269.927C218.299 268.641 213.079 262.266 214.292 255.251C215.81 254.325 219.31 252.375 222.588 252.375C225.117 252.355 226.836 253.541 228.05 256.075ZM223.417 247.249L224.165 218.76L230.599 211.985L234.646 220.389L226.674 247.732L223.417 247.249ZM302.159 394.937C299.731 394.937 297.485 394.978 295.462 395.058L300.763 378.673C301.593 376.402 297.404 373.486 295.684 370.933C298.294 372.561 305.052 376.12 308.31 377.547C307.966 378.07 302.159 394.937 302.159 394.937ZM318.789 376.321L315.33 394.254C313.125 394.555 310.778 394.717 308.37 394.817L312.012 377.567C313.104 372.441 299.246 370.853 292.408 360.78C289.069 364.519 282.777 365.625 276.465 365.625C270.699 365.625 264.933 364.701 261.432 364.017C260.542 363.876 259.692 363.775 258.863 363.775C256.84 363.775 254.998 364.399 253.724 366.529L252.712 368.219L233.837 363.796L229.143 371.516C228.475 372.762 228.434 373.828 229.507 374.994L230.781 376.381C229.911 379.115 225.987 383.236 225.987 383.236L223.175 379.759C220.948 377.286 221.313 372.782 223.64 368.601L231.125 356.035L247.109 358.328L244.62 352.698C241.282 345.259 246.36 335.79 246.906 330.341C246.724 331.99 245.206 332.352 243.426 332.352C241.808 332.352 240.007 332.051 238.813 332.051C238.348 332.051 237.943 332.091 237.721 332.252L233.391 334.864L229.972 331.87C229.567 331.287 229.426 329.939 230.437 328.934L238.348 320.129L229.002 309.292L242.091 315.826L246.076 311.02C247.17 312.086 246.704 314.881 246.704 314.881C250.791 314.982 262.241 321.274 262.849 335.951C262.889 336.393 262.889 336.895 262.889 337.378C262.889 337.378 262.991 337.559 263.193 337.86C264.002 338.966 266.227 341.801 269.059 342.062L287.147 343.831H287.227C289.211 343.831 293.156 341.52 298.213 341.52C300.965 341.52 304.04 342.224 307.318 344.274C307.318 344.274 308.956 342.988 311.627 342.846C311.829 342.827 312.053 342.827 312.255 342.827C320.368 342.827 323.726 350.104 328.076 356.155C331.354 360.759 335.724 367.595 335.724 367.595C334.105 369.505 332.607 370.551 330.099 370.551C329.412 370.551 328.622 370.49 327.772 370.329C319.072 368.741 317.819 350.969 312.862 349.562C312.599 349.481 312.316 349.461 312.072 349.461C310.474 349.461 309.767 350.868 309.767 350.868C312.031 356.92 310.717 359.372 313.145 364.037C314.965 367.494 318.202 370.35 319.537 371.696C319.537 371.737 319.174 374.351 318.789 376.321ZM221.657 359.352L222.486 361.423C221.94 363.233 215.669 365.806 215.669 365.806L214.312 362.871C212.876 359.735 213.179 354.447 217.55 351.21L227.706 345.058L238.47 347.33C238.267 350.728 240.31 353.261 240.31 353.261L229.021 351.11L222.264 355.753C221.131 356.538 221.05 358.005 221.657 359.352ZM320.489 393.269L323.585 377.226C323.746 376.28 323.948 375.175 324.09 374.251C324.96 374.612 325.891 374.913 326.902 375.094C328.055 375.315 329.127 375.416 330.099 375.416C334.834 375.416 337.585 372.943 339.426 370.833L341.813 368.077L339.871 365.062C339.689 364.76 335.4 358.005 332.082 353.381C331.434 352.477 330.806 351.571 330.18 350.586C326.417 344.998 321.703 337.981 312.255 337.981L311.405 338.001C309.847 338.102 308.512 338.404 307.44 338.806C304.465 337.419 301.41 336.714 298.233 336.714C294.329 336.714 291.031 337.78 288.846 338.524C288.219 338.705 287.653 338.906 287.208 338.987L269.545 337.258C269.323 337.217 268.594 336.795 267.724 335.749V335.67L271.548 334.141C270.475 321.496 258.256 313.715 251.438 311.081C251.135 309.814 250.528 308.548 249.456 307.523L245.652 303.944L242.313 307.925L240.675 309.955L215.952 299.862L232.036 319.928L225.683 329.477C223.356 331.929 225.926 334.382 225.926 334.382L232.48 338.865L239.279 336.353C239.521 336.353 239.724 336.413 239.946 336.433C239.623 337.459 239.198 341.479 238.914 342.606L227.119 340.293L214.717 347.249C208.344 351.894 207.474 359.594 209.842 364.861L211.217 367.857L213.179 372.078L217.509 370.289C217.57 370.27 217.631 370.25 217.67 370.209C216.113 375.155 216.741 379.859 219.532 382.956L222.162 386.252L225.663 390.655L229.507 386.554C230.64 385.428 234.302 381.347 235.435 377.848L236.264 375.175L234.383 373.124L234.079 372.762L236.184 369.304L251.579 372.903L255.039 373.687L256.88 370.672L257.892 369.023C258.074 368.682 258.134 368.621 258.843 368.621C259.389 368.621 259.935 368.682 260.522 368.802C266.328 369.888 271.689 370.43 276.444 370.43C281.057 370.43 283.808 370.25 287.106 369.163C287.106 369.163 295.381 378.492 295.664 378.855L290.607 394.374L290.383 395.32C280.794 396.084 276.121 398.174 270.476 403.784C262.282 395.702 256.475 394.857 234.444 394.857C208.081 394.857 190.217 379.497 190.217 354.969V294.997H350.695L350.736 354.969C350.755 374.873 339.001 388.746 320.489 393.269ZM355.186 198.233C352.739 204.667 350.695 211.643 350.695 218.579L350.716 263.332C341.307 261.764 340.195 251.692 340.154 251.25L339.972 249.199L337.949 249.018C333.862 248.636 331.151 246.907 328.865 244.695C324.252 240.112 324.231 232.672 324.252 232.613C324.192 232.995 319.174 239.971 325.001 247.59C327.448 250.807 330.989 252.777 335.582 253.561C336.654 259.15 340.842 267.032 350.716 268.237V290.152H322.957C310.15 283.075 315.572 270.611 315.835 270.087L316.928 267.715L314.48 266.791C300.621 261.683 304.425 247.933 304.627 247.35L305.193 245.339L303.312 244.454C291.86 239.187 293.419 224.973 293.561 224.39C290.04 227.225 288.765 233.015 291.193 238.684C289.878 240.172 288.119 241.982 286.196 243.952C274.34 240.956 273.977 230.119 273.977 229.617L273.955 227.948L272.398 227.345C267.765 225.636 264.588 223.082 263.03 219.645C261.271 215.845 261.897 211.864 262.384 209.955C263.739 210.256 265.094 210.477 266.389 210.577C267.724 210.719 269.1 210.799 270.476 210.799H270.557H270.658C272.034 210.799 273.39 210.719 274.725 210.577C282.109 209.854 290.384 206.698 299.003 198.214H355.186V198.233ZM311.931 152.998L322.896 159.331H323.058L325.81 160.919C319.619 162.629 314.885 165.704 310.92 169.745C310.778 169.866 310.637 170.026 310.494 170.168C309.584 171.133 308.673 172.177 307.824 173.243C307.662 173.444 307.5 173.665 307.318 173.887C306.468 174.972 305.68 176.078 304.91 177.244C304.789 177.445 304.647 177.646 304.506 177.827C303.595 179.174 302.726 180.622 301.856 182.11C294.046 195.479 281.583 203.46 270.497 203.481C259.43 203.46 246.967 195.479 239.157 182.11C238.307 180.662 237.458 179.255 236.547 177.888C236.365 177.626 236.203 177.364 236.042 177.143C235.273 176.038 234.504 174.953 233.715 173.927C233.513 173.645 233.33 173.424 233.128 173.184C232.278 172.157 231.408 171.133 230.538 170.187C230.357 170.046 230.235 169.866 230.053 169.705C226.068 165.664 221.353 162.607 215.142 160.919L217.934 159.331H218.055L229.021 152.998L240.29 146.584L270.395 162.869L270.456 162.808L270.536 162.869L300.641 146.584L311.931 152.998ZM297.08 139.508L273.086 152.072V101.208L305.639 90.2315L297.08 139.508ZM270.476 95.6194L234.787 81.6057C237.822 74.4685 251.822 68.3971 270.476 68.3773C289.15 68.3971 303.15 74.4685 306.165 81.6057L270.476 95.6194Z" fill="black"/>
<path d="M712.431 308.396V227.894H759.948V198.6H630.314V227.894H677.831V308.396H712.431ZM808.396 198.6H773.796V308.396H808.396V198.6ZM833.714 198.6V308.396H865.547V247.732L924.828 308.396H954.353V198.6H922.52V258.804L864.624 198.6H833.714ZM1022.36 266.877L1062.26 308.396H1106.78L1051.19 251.191L1104.7 198.6H1062.72L1022.36 239.889H1013.13V198.6H979.682V308.396H1013.13V266.877H1022.36ZM1175.6 195.601C1130.62 195.601 1103.63 220.974 1103.63 253.728C1103.63 286.483 1130.62 311.856 1175.6 311.856C1220.36 311.856 1247.34 286.483 1247.34 253.728C1247.34 220.974 1220.36 195.601 1175.6 195.601ZM1175.6 285.099C1153.23 285.099 1138.92 271.72 1138.92 253.728C1138.92 235.737 1153.23 222.588 1175.6 222.588C1197.75 222.588 1212.28 235.737 1212.28 253.728C1212.28 271.72 1197.75 285.099 1175.6 285.099ZM1374.18 198.6H1263.23V308.396H1296.67V270.106H1369.34V245.886H1296.67V226.51H1374.18V198.6ZM1500.1 198.6H1389.14V308.396H1422.59V270.106H1495.26V245.886H1422.59V226.51H1500.1V198.6Z" fill="black"/>
</svg>
