<?xml version="1.0" encoding="UTF-8"?>
<svg width="92px" height="33px" viewBox="0 0 92 33" version="1.1" xmlns="http://www.w3.org/2000/svg" xmlns:xlink="http://www.w3.org/1999/xlink">
    <!-- Generator: Sketch 48.1 (47250) - http://www.bohemiancoding.com/sketch -->
    <title>Group 6</title>
    <desc>Created with Sketch.</desc>
    <defs>
        <polygon id="path-1" points="32.5097041 32.7427747 91.8248457 32.7427747 91.8248457 6.50603633 32.5097041 6.50603633"></polygon>
    </defs>
    <g id="vtb_ru" stroke="none" stroke-width="1" fill="none" fill-rule="evenodd">
        <g id="Group-6">
            <g id="Group-Copy">
                <g id="Group-2">
                    <path d="M6.25065367,0 L4.68701481,4.28311036 L26.3555573,4.28311036 L27.9191962,0 L6.25065367,0 Z M3.90470765,6.423693 L2.34106879,10.7058308 L24.0096113,10.7058308 L25.5732502,6.423693 L3.90470765,6.423693 Z M1.56363886,12.847386 L0,17.1295238 L21.6685425,17.1295238 L23.231206,12.847386 L1.56363886,12.847386 Z" id="Fill-1" fill="#009FDF"></path>
                    <mask id="mask-2" fill="white">
                        <use xlink:href="#path-1"></use>
                    </mask>
                    <g id="Clip-3"></g>
                    <path d="M46.0659305,18.7617116 L46.0659305,18.8520825 C47.0561913,19.215552 48.002112,19.8511271 48.497735,20.2592855 C50.0289442,21.5304356 50.7048834,23.2097442 50.7048834,25.3885751 C50.7048834,28.975602 48.8130419,31.5625912 45.7052982,32.3799011 C44.7593775,32.6520067 43.7691167,32.7433706 41.9216153,32.7433706 L32.5097041,32.7433706 L32.5097041,6.50603633 L40.8416891,6.50603633 C42.5532145,6.50603633 43.7237914,6.59640716 44.7593775,6.86851275 C47.7774558,7.68582259 49.7589627,9.77428262 49.7589627,13.0872178 C49.7589627,14.8578903 49.1283488,16.3564572 48.0927627,17.3545087 C47.642465,17.808349 47.0118512,18.3535533 46.0659305,18.7617116 Z M37.7339454,21.5304356 L37.7339454,28.4303977 L41.3373122,28.4303977 C42.4172384,28.4303977 43.4084845,28.3400269 44.129749,27.6587698 C44.8500282,26.9775128 45.1653351,26.1155141 45.1653351,24.9804167 C45.1653351,24.118418 44.9396936,23.3011081 44.489396,22.711215 C43.7237914,21.7578524 42.7778706,21.5304356 41.1569961,21.5304356 L37.7339454,21.5304356 Z M37.6886201,16.9910392 L40.6160476,16.9910392 C41.516643,16.9910392 41.9669407,16.9910392 42.4172384,16.8549864 C43.634126,16.4915169 44.3997305,15.4030945 44.3997305,13.9045276 C44.3997305,12.1348482 43.5888006,11.3622273 42.4172384,10.9997508 C41.9216153,10.863698 41.4269776,10.8180161 40.4357315,10.8180161 L37.6886201,10.8180161 L37.6886201,16.9910392 Z M58.5412454,32.7433706 L58.5412454,10.9083869 L51.0201903,10.9083869 L51.0201903,6.50603633 L71.918141,6.50603633 L70.4322572,10.9083869 L63.7654868,10.9083869 L63.7654868,32.7433706 L58.5412454,32.7433706 Z M73.5390156,32.7433706 L73.5390156,6.50603633 L90.4739526,6.50603633 L88.9880688,10.9083869 L78.7189169,10.9083869 L78.7189169,16.7189336 L82.9075721,16.7189336 C86.2852974,16.7189336 88.0421481,17.5362434 89.2580504,18.5799769 C90.2039711,19.3972867 91.8248457,21.2126481 91.8248457,24.799675 C91.8248457,28.3400269 90.1586457,30.291441 88.7624273,31.2904856 C87.1415527,32.4245899 85.4300274,32.7433706 81.9616514,32.7433706 L73.5390156,32.7433706 Z M78.7189169,28.3400269 L82.6375906,28.3400269 C84.1234744,28.3400269 85.0240698,27.9765574 85.6546836,27.1592475 C85.9699905,26.7510892 86.4202882,26.0241502 86.4202882,24.6626291 C86.4202882,23.3011081 85.9699905,22.3477455 85.0693951,21.6664884 C84.5294321,21.2583301 83.8081675,21.0319064 82.5922652,21.0319064 L78.7189169,21.0319064 L78.7189169,28.3400269 Z" id="Fill-2" fill="#0A2973" mask="url(#mask-2)"></path>
                </g>
            </g>
        </g>
    </g>
</svg>