<?xml version="1.0" encoding="UTF-8"?> <svg xmlns="http://www.w3.org/2000/svg" width="224" height="70" viewBox="0 0 224 70" fill="none"> <g clip-path="url(#clip0_1219_12884)"> <path d="M3.48817 40.8666C4.64407 39.1474 5.46752 37.2293 5.91249 35.2092C6.61831 32.4749 7.04282 29.6743 7.17069 26.8584L7.60543 20.4053H27.5268V40.8666H32.0328V53.5025H25.5884V47.2432H6.42395V53.5025H0V40.8666H3.48817ZM13.9834 29.6029C13.7839 32.0566 13.3031 34.4798 12.5513 36.8263C12.1165 38.2751 11.4874 39.6576 10.6844 40.9431H20.7142V26.8635H14.101L13.9322 29.608H13.9834V29.6029Z" fill="#6D6F70"></path> <path d="M42.8655 20.4053L52.0513 31.623L60.8229 20.4053H66.8786V47.2432H59.9227V30.8527L51.9286 40.8666H51.7598L43.5201 30.8527V47.2432H36.5898V20.4053H42.8655Z" fill="#6D6F70"></path> <path d="M163.048 20.4053V27.2665H154.205V47.2432H147.3V27.2665H138.432V20.4053H163.053H163.048Z" fill="#6D6F70"></path> <path d="M190.407 44.6926C188.97 45.8098 187.323 46.6311 185.558 47.1004C183.748 47.6258 181.871 47.886 179.983 47.8707C177.958 47.8809 175.948 47.5391 174.045 46.8606C172.332 46.2791 170.772 45.3353 169.468 44.0906C168.204 42.8051 167.207 41.2849 166.537 39.6117C165.795 37.7956 165.422 35.8469 165.448 33.8829C165.448 31.9904 165.795 30.1131 166.491 28.348C167.166 26.6697 168.184 25.1444 169.473 23.8691C170.716 22.6295 172.199 21.6551 173.835 21.0022C175.733 20.2625 177.758 19.9003 179.799 19.9411C181.456 19.9411 183.098 20.2421 184.648 20.8338C186.151 21.3644 187.532 22.1857 188.719 23.2416C189.885 24.3537 190.806 25.6852 191.435 27.1645C192.115 28.7714 192.458 30.5008 192.453 32.2454C192.494 32.9443 192.494 33.6432 192.453 34.3421C192.396 34.8828 192.284 35.4133 192.115 35.9286H172.582C172.69 36.8417 172.976 37.7242 173.431 38.5302C173.887 39.3362 174.495 40.0351 175.227 40.6013C176.802 41.7083 178.699 42.2746 180.628 42.2134C182.162 42.2389 183.686 41.994 185.134 41.489C186.284 41.0962 187.359 40.5095 188.31 39.7545L190.294 44.5702L190.417 44.6926H190.407ZM179.548 25.4352C177.784 25.3332 176.05 25.9096 174.7 27.0472C173.518 28.2154 172.741 29.7203 172.47 31.3578H185.747C185.793 30.5875 185.676 29.8223 185.4 29.0979C185.129 28.3786 184.709 27.7206 184.172 27.1696C183.563 26.5881 182.842 26.1392 182.05 25.8535C181.257 25.5678 180.413 25.4505 179.569 25.5117L179.543 25.4403L179.548 25.4352Z" fill="#6D6F70"></path> <path d="M223.125 47.2432H214.717L208.416 37.6171L201.874 47.2432H193.9L203.593 33.5972L194.504 20.4053H202.963L208.656 29.2866L214.543 20.4053H222.517L213.525 33.235L223.12 47.2432H223.125Z" fill="#6D6F70"></path> <path d="M135.885 14.5132L113.764 25.078L114.705 0L102.404 27.1185L83.8538 20.4001L91.7917 36.3978L70.8115 47.2074H91.3927L78.0794 70L101.688 49.8448L110.9 64.0978L113.979 47.2074H131.374L118.592 34.597L135.88 14.5132H135.885Z" fill="#6D6F70"></path> </g> <defs> <clipPath id="clip0_1219_12884"> <rect width="223.125" height="70" fill="white"></rect> </clipPath> </defs> </svg> 