<svg xmlns="http://www.w3.org/2000/svg" width="1020" height="1020" fill="none" style=""><rect id="backgroundrect" width="100%" height="100%" x="0" y="0" fill="none" stroke="none" class="" style=""/>

<g class="currentLayer" style=""><title>Layer 1</title><path d="M459.52700001490115,510.58698095703124 C459.52700001490115,549.2499809570313 435.93800001490115,567.5279809570312 406.41300001490123,567.5279809570312 H388.36900001490125 V544.3289809570313 H405.00700001490117 C422.81600001490114,544.3289809570313 434.6870000149012,534.7229809570313 434.6870000149012,510.58698095703124 C434.6870000149012,486.68478095703125 423.46000001490114,474.73218095703123 404.47900001490115,474.73218095703123 C386.2010000149012,474.73218095703123 373.13700001490116,485.98168095703124 373.13700001490116,510.11798095703125 V607.1319809570313 H348.53200001490114 V454.57918095703127 H373.13700001490116 V467.70358095703125 H376.65200001490115 C384.85400001490115,456.6900809570312 396.9800000149012,451.76718095703126 409.6340000149012,451.76718095703126 C436.81700001490117,451.76718095703126 459.52700001490115,471.45138095703123 459.52700001490115,510.58698095703124 zM297.82000001490115,500.50878095703126 L281.41600001490116,498.86818095703126 C268.5280000149012,497.69678095703125 261.7320000149012,494.18178095703126 261.7320000149012,486.6828809570312 C261.7320000149012,477.77838095703123 270.4030000149012,472.62318095703125 282.82200001490116,472.62318095703125 C295.7110000149012,472.62318095703125 303.91200001490114,478.71558095703125 304.61500001490117,487.38588095703125 H328.2830000149012 C327.34600001490116,465.35888095703126 310.24000001490117,451.76718095703126 283.0570000149012,451.76718095703126 C255.64000001490115,451.76718095703126 237.12700001490117,466.2960809570312 237.12700001490117,487.62048095703125 C237.12700001490117,505.42998095703126 248.37500001490116,516.9119809570312 273.91800001490117,519.4899809570313 L290.55500001490117,521.1299809570312 C300.63200001490117,522.0669809570313 307.42800001490116,524.1759809570312 307.42800001490116,533.7839809570312 C307.42800001490116,542.4549809570312 301.1000000149012,548.7809809570313 284.4630000149012,548.7809809570313 C269.14200001490116,548.7809809570313 261.5930000149012,541.8289809570313 258.9440000149012,532.5099809570313 H233.33900001490116 C235.89000001490115,553.8119809570312 253.78500001490113,570.3399809570312 284.4630000149012,570.3399809570312 C313.28600001490116,570.3399809570312 332.03200001490114,555.1079809570313 332.03200001490114,532.6129809570313 C332.03200001490114,512.6939809570313 318.9100000149012,502.6178809570313 297.82000001490115,500.50878095703126 zM554.8220000149012,532.5099809570313 C550.9620000149012,541.3749809570313 541.7390000149012,548.0789809570313 528.6510000149011,548.0789809570313 C510.6080000149011,548.0789809570313 497.25100001490114,536.3619809570313 497.25100001490114,511.0539809570313 C497.25100001490114,486.9174809570312 509.67000001490123,473.56038095703127 528.8850000149012,473.56038095703127 C545.9920000149011,473.56038095703127 555.8340000149011,483.8712809570312 556.7720000149012,499.33698095703124 H512.4820000149011 V517.1479809570312 H580.9080000149012 V505.42998095703126 C580.9080000149012,472.85738095703124 559.3490000149012,451.76718095703126 528.6510000149011,451.76718095703126 C500.06300001490115,451.76718095703126 472.64500001490114,471.21718095703125 472.64500001490114,511.0539809570313 C472.64500001490114,550.8899809570312 500.06300001490115,570.3399809570312 528.6510000149011,570.3399809570312 C554.8000000149011,570.3399809570312 573.4460000149012,554.2329809570313 579.2390000149012,532.5099809570313 H554.8220000149012 zM166.94500001490115,451.76718095703126 C139.99700001490118,451.76718095703126 119.84400001490116,465.82908095703124 117.50100001490117,487.38588095703125 H143.98000001490115 C145.85500001490115,479.42048095703126 153.11900001490116,473.5621809570313 166.94500001490115,473.5621809570313 C184.75500001490116,473.5621809570313 190.61300001490116,482.93698095703127 190.61300001490116,494.41778095703125 V533.0809809570312 C180.53700001490117,544.5649809570313 168.82000001490115,549.9529809570313 157.10300001490117,549.9529809570313 C144.91800001490117,549.9529809570313 136.48200001490116,544.0949809570312 136.48200001490116,533.5519809570312 C136.48200001490116,523.4729809570313 143.04300001490117,517.1479809570312 155.69700001490116,517.1479809570312 H175.38100001490116 V499.33698095703124 H154.99400001490116 C126.87400001490116,499.33698095703124 111.17400001490117,513.3989809570312 111.17400001490117,534.9559809570312 C111.17400001490117,555.1079809570313 126.40500001490116,570.3399809570312 151.47900001490117,570.3399809570312 C165.53900001490115,570.3399809570312 177.95900001490116,564.7179809570313 187.09800001490117,557.9199809570313 H190.61300001490116 V567.5279809570312 H215.21800001490115 V492.0727809570312 C215.21800001490115,464.18708095703124 196.23700001490116,451.76718095703126 166.94500001490115,451.76718095703126 zM1.490116116609208e-8,567.5279809570312 H24.605200014901165 V412.86798095703125 H1.490116116609208e-8 V567.5279809570312 zM103.34100001490116,454.57918095703127 H73.34650001490117 L37.49350001490116,501.68208095703125 V516.4449809570312 L74.28370001490116,567.5279809570312 H104.74700001490116 L61.63000001490116,508.94498095703125 L103.34100001490116,454.57918095703127 zM992.8170000149012,454.57918095703127 L972.6640000149011,499.33698095703124 C967.7430000149012,510.11798095703125 963.0590000149011,520.6609809570313 961.6520000149012,527.6929809570313 H958.1340000149012 C956.7280000149011,520.6609809570313 951.8090000149011,510.35098095703125 946.8880000149012,499.57308095703127 L926.7350000149012,454.57918095703127 H899.5520000149012 L946.8880000149012,556.0459809570312 L923.4540000149011,607.1319809570313 H949.7000000149012 L1020.0000000149012,454.57918095703127 H992.8170000149012 zM894.1100000149012,454.57918095703127 H864.1150000149012 L828.2620000149011,501.68208095703125 V516.4449809570312 L865.0520000149012,567.5279809570312 H895.5160000149011 L852.3980000149012,508.94498095703125 L894.1100000149012,454.57918095703127 zM740.0560000149012,500.50878095703126 L723.6530000149012,498.86818095703126 C710.7640000149012,497.69678095703125 703.9690000149012,494.18178095703126 703.9690000149012,486.6828809570312 C703.9690000149012,477.77838095703123 712.6390000149012,472.62318095703125 725.0590000149011,472.62318095703125 C737.9470000149012,472.62318095703125 746.1490000149012,478.71558095703125 746.8520000149011,487.38588095703125 H770.5190000149012 C769.5820000149012,465.35888095703126 752.4760000149012,451.76718095703126 725.2930000149012,451.76718095703126 C697.8760000149011,451.76718095703126 679.3640000149012,466.2960809570312 679.3640000149012,487.62048095703125 C679.3640000149012,505.42998095703126 690.6120000149011,516.9119809570312 716.1540000149012,519.4899809570313 L732.7920000149012,521.1299809570312 C742.8680000149012,522.0669809570313 749.6640000149011,524.1759809570312 749.6640000149011,533.7839809570312 C749.6640000149011,542.4549809570312 743.3370000149012,548.7809809570313 726.6990000149011,548.7809809570313 C711.3780000149012,548.7809809570313 703.8290000149011,541.8289809570313 701.1800000149011,532.5099809570313 H675.5750000149012 C678.1260000149011,553.8119809570312 696.0210000149011,570.3399809570312 726.6990000149011,570.3399809570312 C755.5220000149012,570.3399809570312 774.2690000149012,555.1079809570313 774.2690000149012,532.6129809570313 C774.2690000149012,512.6939809570313 761.1460000149011,502.6178809570313 740.0560000149012,500.50878095703126 zM790.7680000149012,567.5279809570312 H815.3730000149012 V412.86798095703125 H790.7680000149012 V567.5279809570312 zM628.5160000149011,467.70358095703125 H625.0010000149011 V454.57918095703127 H600.3960000149011 V567.5279809570312 H625.0010000149011 V508.47598095703125 C625.0010000149011,488.3234809570313 634.3130000149011,476.60658095703127 652.6530000149012,476.60658095703127 H668.2290000149012 V451.76718095703126 H659.2140000149012 C642.1970000149012,451.76718095703126 634.9650000149012,458.18518095703126 628.5160000149011,467.70358095703125 z" fill="#006D5C" id="svg_1" class=""/></g></svg>