<svg xmlns="http://www.w3.org/2000/svg" height="800" width="1200" viewBox="-17.99994 -6.75 155.99948 40.5"><path d="M77.8724 9.8319c-2.0234-1.7778-4.4659-2.6466-7.29-2.6466-2.7853 0-5.2278.8703-7.2527 2.6466-2.0234 1.739-3.0517 4.1598-3.0517 7.2608 0 3.1009 1.0283 5.5203 3.0517 7.2979C65.3531 26.1298 67.7971 27 70.5823 27c2.8242 0 5.2667-.8702 7.2901-2.6094 2.0623-1.7776 3.0906-4.197 3.0906-7.298s-1.0297-5.5216-3.0906-7.2607zm-11.105 11.2306c-1.0672-1.0203-1.6044-2.345-1.6044-3.9698 0-1.6262.533-2.9495 1.6044-3.9327 1.0671-1.0203 2.3287-1.512 3.8135-1.512 1.4862 0 2.7853.4917 3.854 1.512 1.1045.9832 1.6416 2.3065 1.6416 3.9327 0 1.6262-.5328 2.9495-1.6417 3.9698-1.0672.983-2.3662 1.4747-3.8539 1.4747-1.4848 0-2.7435-.4916-3.8135-1.4747zm21.4122 5.4068V.5213H83.371v25.948zm15.522-18.7556v10.3532c0 2.495-1.361 4.1484-3.952 4.1484-2.634 0-3.959-1.652-3.959-4.1484V7.7137h-4.8173v11.1477c0 4.3185 2.7478 8.1368 8.7763 8.1368h.037c5.992 0 8.735-3.9026 8.735-8.1368V7.7137zm-48.5426 0L50.3503 20.419 45.5416 7.7137h-5.114l7.6732 18.7558h4.5048l7.6717-18.7558zm-14.7066 8.8488c0-2.7223-.877-4.953-2.595-6.7306-1.7183-1.7778-3.9289-2.6466-6.6393-2.6466-2.7852 0-5.1529.946-7.1 2.798-1.9096 1.8535-2.8615 4.197-2.8615 7.1094 0 2.9123.9533 5.2945 2.8241 7.1465C25.9904 26.0926 28.2802 27 30.9891 27c4.1621 0 7.1-1.8148 8.8901-5.4831l-3.586-2.0421c-1.1809 2.3065-2.9004 3.441-5.2277 3.441-2.8616 0-4.885-1.8147-5.1904-4.6885h14.576v-1.6648zm-9.3898-5.7475c2.709 0 4.5048 1.5119 4.9613 3.9327H25.8723c.7272-2.2307 2.709-3.9327 5.1903-3.9327zm-9.8059 15.6546l-6.4519-11.192c4.0814-1.4747 6.1048-4.0455 6.1048-7.7896C20.914 2.9123 17.2473 0 11.409 0H0v26.4696h5.0377v-10.739h4.2758l6.1811 10.739zM11.409 4.3856c2.9768 0 4.466 1.1718 4.466 3.4783 0 2.3064-1.4906 3.4782-4.466 3.4782H5.0377V4.3856zm105.2646 22.6128c-3.095 0-5.605-2.488-5.605-5.559V2.6467h4.808V7.721h4.123v3.8569h-4.123v9.5558c0 .9003.736 1.629 1.646 1.629h2.477v4.2357z"/></svg>